<?xml version="1.0" standalone="no"?>
<!DOCTYPE svg PUBLIC "-//W3C//DTD SVG 1.1//EN" "http://www.w3.org/Graphics/SVG/1.1/DTD/svg11.dtd" >
<!--
2013-9-30: Created.
-->
<svg>
<metadata>
Created by iconfont
</metadata>
<defs>

<font id="iconfont" horiz-adv-x="1024" >
  <font-face
    font-family="iconfont"
    font-weight="500"
    font-stretch="normal"
    units-per-em="1024"
    ascent="896"
    descent="-128"
  />
    <missing-glyph />
    
    <glyph glyph-name="sousuo" unicode="&#58892;" d="M215.51289 525.05355c2.566452-1.534959 5.383614-2.25332 8.16803-2.25332 5.476735 0 10.796904 2.800789 13.802354 7.839549 45.552475 76.69373 129.193431 124.343983 218.281445 124.343983 8.856715 0 16.023952 7.166213 16.023952 16.023952s-7.167237 16.023952-16.023952 16.023952c-100.338243 0-194.541765-53.658084-245.838058-140.022057C205.404672 539.403373 207.907679 529.559167 215.51289 525.05355zM196.751594 478.498234c-8.607028 1.987261-17.229406-3.332908-19.24839-11.955286-4.78805-20.451798-7.495718-33.127492-7.495718-55.879682 0-8.856715 7.182586-16.023952 16.023952-16.023952 8.857738 0 16.024975 7.167237 16.024975 16.023952 0 19.309788 2.159176 29.387307 6.650467 48.588625C210.724841 467.874269 205.372949 476.480274 196.751594 478.498234zM947.204451 19.832953 784.053628 182.986847c-0.441045 0.442068-0.893346 0.86367-1.351787 1.272993 41.450041 62.197574 65.652256 136.821155 65.652256 217.013569 0 216.480426-176.10895 392.589376-392.588353 392.589376-216.4661 0-392.589376-176.10895-392.589376-392.589376 0-216.47224 176.123276-392.58119 392.589376-392.58119 78.758762 0 152.117536 23.378453 213.647915 63.470567l-46.695508 46.694485c-49.01125-29.074176-105.971543-46.069245-166.952406-46.069245-181.131337 0-328.493569 147.343813-328.493569 328.48436 0 181.131337 147.361209 328.493569 328.493569 328.493569 181.130314 0 328.493569-147.362232 328.493569-328.493569 0-85.36932-33.002648-162.956396-86.567611-221.433228l36.58422-36.585243c1.251503-1.983167 2.732228-3.860934 4.459568-5.588275l163.15287-163.151847c6.259564-6.259564 14.459317-9.389858 22.659069-9.389858s16.415878 3.130294 22.659069 9.389858C959.724603-12.980383 959.724603 7.315872 947.204451 19.832953z"  horiz-adv-x="1024" />

    
    <glyph glyph-name="baoming" unicode="&#58916;" d="M629.79994 291.205571c0 0-242.759953 0-333.757456-212.421994 0 0 151.990646-60.670801 333.757456-60.670801s333.756433 60.670801 333.756433 60.670801C872.52817 291.205571 629.79994 291.205571 629.79994 291.205571L629.79994 291.205571zM629.79994 321.479061c91.029226 0 151.693888 91.029226 151.693888 242.786559 0 151.752216-151.693888 151.72561-151.693888 151.72561s-151.699004 0-151.699004-151.72561C478.101959 412.54001 538.770713 321.479061 629.79994 321.479061L629.79994 321.479061zM335.300602 425.023322c29.919427 0 55.600319 12.399401 75.979462 34.749432-7.540743 30.512944-11.692297 65.379033-11.692297 104.491843 0 58.311057 22.414499 94.088912 50.037626 116.149347-30.067806 69.297272-114.298186 69.473281-114.298186 69.473281s-124.956943 0-124.956943-124.956943 49.978275-199.907982 124.956943-199.907982L335.300602 425.022299zM453.098495 327.105199l-4.241604 49.386804c-61.164035 23.411199-113.556289 23.559579-113.556289 23.559579s-199.907982 0-274.857998-174.935218c0 0 96.623641-38.520315 221.669612-47.91222 108.878756 114.001427 171.018002 149.870356 171.018002 149.870356L453.098495 327.105199zM453.098495 327.105199"  horiz-adv-x="1024" />

    
    <glyph glyph-name="zhuanfa" unicode="&#59280;" d="M834.346057 40.164001l-644.682905 0c-47.424102 0-85.957721 38.533618-85.957721 85.957721l0 515.746324c0 47.39238 38.533618 85.957721 85.957721 85.957721l236.352009 0c11.879562 0 21.521153-9.641591 21.521153-21.521153 0-11.816117-9.641591-21.457708-21.521153-21.457708L189.663152 684.846906c-23.712051 0-42.97886-19.283182-42.97886-42.97886l0-515.746324c0-23.712051 19.266809-42.97886 42.97886-42.97886l644.682905 0c23.632233 0 42.97886 19.266809 42.97886 42.97886L877.324918 233.53715c0 11.864212 9.577123 21.521153 21.457708 21.521153s21.521153-9.657964 21.521153-21.521153l0-107.415428C920.303778 78.697619 881.737414 40.164001 834.346057 40.164001L834.346057 40.164001zM898.781602 383.994883c-11.879562 0-21.457708 9.641591-21.457708 21.457708L877.323894 654.468015 441.204096 218.378915c-4.189416-4.221138-9.657964-6.299473-15.189957-6.299473-5.548366 0-11.000542 2.078335-15.189957 6.299473-8.394181 8.394181-8.394181 21.98471 0 30.363542l436.072727 436.104449L597.92958 684.846906c-11.879562 0-21.457708 9.641591-21.457708 21.457708 0 11.879562 9.577123 21.521153 21.457708 21.521153l300.676014 0c0.591471 0 1.182942 0 1.679245-0.064468 4.332678-0.303922 8.362458-1.870604 11.592013-4.365424 1.167592-0.895393 2.222621-1.935072 3.149736-3.021823 3.229554-3.75758 5.196349-8.650007 5.276167-14.007015 0 0 0 0 0-0.064468l0-300.852022C920.303778 393.636474 910.662187 383.994883 898.781602 383.994883L898.781602 383.994883z"  horiz-adv-x="1024" />

    
    <glyph glyph-name="dianhua" unicode="&#58913;" d="M663.445224 53.021843c-42.706661 0-97.842399 28.452006-136.574538 52.322669-51.871391 31.965016-107.752096 76.18617-157.354817 124.512828l-0.179079 0.178055-15.745612 15.752776c-48.328705 49.596582-92.546789 105.479333-124.515898 157.353794-23.870664 38.734186-52.322669 93.864808-52.322669 136.572492 0 45.701878 32.679283 94.210685 46.732347 112.942305 10.962679 14.619976 49.266054 62.321394 81.814354 62.321394 13.361309 0 27.754111-8.748245 46.667879-28.366048 16.73208-17.342993 32.784684-38.906102 43.306318-53.93847 14.129812-20.180622 27.194362-41.314964 36.796044-59.505255 15.548114-29.453822 17.346063-42.083467 17.346063-49.02353 0-14.002922-7.314593-26.148543-21.736047-36.096103-9.497305-6.550183-20.894889-11.481496-31.917944-16.252149-7.436366-3.216251-19.306718-8.348132-23.837918-11.961426 1.583055-6.690376 8.488325-22.849404 27.146267-50.248428 17.391089-25.527396 39.879266-53.196573 60.190871-74.055646 20.859074-20.314675 48.524157-42.799782 74.058716-60.193941 27.389814-18.650779 43.548842-25.563212 50.246381-27.14422 3.606131 4.52813 8.742105 16.399505 11.957333 23.834848 4.768607 11.023054 9.698896 22.423709 16.252149 31.921014 9.948583 14.421454 22.094204 21.728884 36.100196 21.728884 6.936993 0 19.565615-1.794879 49.022507-17.339924 18.190291-9.599635 39.325657-22.667256 59.506279-36.797068 15.032368-10.523681 36.589336-26.577309 53.94154-43.302225 19.614733-18.916838 28.359908-33.30964 28.359908-46.671972 0-32.547277-47.695279-70.852698-62.315254-81.814354C757.655909 85.704197 709.147102 53.021843 663.445224 53.021843L663.445224 53.021843 663.445224 53.021843zM396.883169 257.764947c47.583738-46.351678 101.019765-88.658226 150.494573-119.146611 47.961338-29.556153 90.267886-46.511313 116.067482-46.511313 22.981411 0 55.743582 14.036691 87.644129 37.543058 13.986549 10.30674 26.712385 21.783119 35.837206 32.317033 8.566096 9.887184 11.698436 16.338107 12.491499 18.939351-3.311419 7.108908-22.968108 29.344329-68.849064 60.994166-17.998933 12.414751-36.605709 23.825638-52.396347 32.122605-19.825534 10.42442-28.087709 12.222369-29.978778 12.520151-0.735757-0.502443-2.895957-2.307555-6.178723-7.810896-3.672646-6.163373-7.206122-14.329357-10.619872-22.222117-4.203742-9.721409-8.552793-19.771299-13.887288-27.883047-8.671497-13.193487-19.320021-19.883863-31.651884-19.893072-0.221034 0-0.454348 0.00307-0.691755 0.013303-5.999644 0.127913-24.266683 0.514723-73.857125 34.285874-27.374464 18.650779-57.102532 42.831504-79.514985 64.689325l-0.350994 0.345877c-21.85475 22.417569-46.034453 52.143591-64.680115 79.517031-33.777291 49.589418-34.170241 67.854411-34.295084 73.857125-0.26913 12.552897 6.353708 23.387663 19.681248 32.212656 8.15268 5.396917 18.286482 9.777691 28.084639 14.021342 7.896854 3.41068 16.059767 6.946202 22.222117 10.616802 5.503341 3.276626 7.311523 5.441942 7.810896 6.175653-0.297782 1.89107-2.095731 10.152221-12.517081 29.980825-8.300037 15.784498-19.710924 34.395368-32.125675 52.390207-31.651884 45.88505-53.880141 65.543785-60.994166 68.849064-2.601244-0.797156-9.052167-3.926426-18.939351-12.491499-10.536984-9.122775-22.014386-21.85475-32.317033-35.837206-23.508413-31.898501-37.539988-64.660672-37.539988-87.641059 0-25.799596 16.949021-68.104097 46.508243-116.067482 30.487362-49.474808 72.798003-102.910834 119.143541-150.494573L396.883169 257.764947 396.883169 257.764947 396.883169 257.764947zM396.883169 257.764947M629.496018 398.013155c-6.821359 0-12.866029 4.889357-14.09195 11.838629-3.5038 19.882839-15.015995 37.152155-32.410154 48.632627-17.643845 11.647271-39.211047 15.969717-60.7322 12.178367-7.794523-1.376347-15.217586 3.827165-16.593933 11.618619-1.373277 7.79043 3.830235 15.217586 11.618619 16.593933 28.766161 5.071506 57.701167-0.781806 81.484849-16.479323 24.033369-15.864316 39.962154-39.8588 44.847417-67.568908 1.373277-7.788383-3.830235-15.217586-11.620665-16.593933C631.156844 398.086833 630.321826 398.013155 629.496018 398.013155L629.496018 398.013155zM629.496018 398.013155M715.726961 435.002604c-6.822382 0-12.863982 4.889357-14.092973 11.838629-6.798846 38.579667-29.091572 72.065316-62.763462 94.291526-33.923624 22.388916-75.334779 30.714536-116.608811 23.434735-7.794523-1.376347-15.217586 3.827165-16.593933 11.617595-1.373277 7.788383 3.827165 15.21861 11.621688 16.590863 48.513924 8.559956 97.298-1.292436 137.359414-27.735691 40.311101-26.605961 67.01837-66.816778 75.200726-113.226784 1.373277-7.78736-3.827165-15.217586-11.618619-16.58984C717.390857 435.076282 716.548676 435.002604 715.726961 435.002604L715.726961 435.002604zM715.726961 435.002604M830.856072 445.682851c-6.821359 0-12.862959 4.886287-14.087856 11.838629-11.608386 65.835428-49.615001 122.957403-107.018386 160.846338-57.650001 38.051641-127.994116 52.203966-198.061938 39.84652-7.791453-1.373277-15.217586 3.830235-16.593933 11.618619-1.369184 7.79043 3.830235 15.22168 11.617595 16.593933 77.3159 13.633508 155.028842-2.045589 218.818681-44.150546 64.040549-42.268686 106.46273-106.113783 119.450533-179.781596 1.372254-7.788383-3.827165-15.21861-11.618619-16.590863C832.520991 445.753459 831.68188 445.682851 830.856072 445.682851L830.856072 445.682851zM830.856072 445.682851"  horiz-adv-x="1024" />

    
    <glyph glyph-name="bianji-copy" unicode="&#58911;" d="M532.392 575.783c58.751-58.642 116.557-116.356 176.408-176.083-1.934-1.161-4.921-2.257-6.976-4.299-87.523-86.596-175.141-173.078-262.184-260.154-11.369-11.369-23.604-18.609-38.937-22.958-59.724-16.953-119.201-34.773-178.802-52.192-13.288-3.881-23.684-0.384-30.382 9.934-4.424 6.804-4.409 14.246-2.259 21.625 19.028 65.153 38.084 130.294 57.421 195.34 1.409 4.703 4.409 9.468 7.904 12.947 90.756 90.028 181.7 179.871 272.563 269.778 1.962 1.95 3.635 4.206 5.243 6.063zM289.594 258.889c-0.913-2.722-1.626-4.672-2.212-6.668-8.047-27.285-15.1-54.914-24.474-81.737-4.887-13.983-3.541-23.822 8.664-32.128 2.257-1.533 4.207-3.696 5.891-5.876 2.662-3.482 5.631-3.577 9.576-2.383 22.307 6.743 44.69 13.269 67.058 19.844 11.186 3.296 22.382 6.561 34.358 10.055-1.872 2.137-2.893 3.82-4.362 4.873-9.205 6.667-13.288 15.516-12.452 26.902 0.323 4.239-0.247 8.554-0.496 12.837-0.727 11.88-1.484 23.762-2.259 35.922-16.366 1.345-31.911 2.968-47.487 3.772-11.372 0.589-22.105 1.72-29.051 12.347-0.435 0.663-1.284 1.065-2.752 2.241zM794.821 498.687c-55.549 55.47-110.991 110.849-167.034 166.816 13.474 12.252 24.335 28.292 42.046 36.83 21.346 10.272 47.875 5.414 66.808-13.194 27.49-27.038 54.87-54.218 81.786-81.846 24.887-25.522 24.47-59.989-0.309-85.51-7.752-7.968-15.779-15.656-23.296-23.095zM772.144 465.862c-12.482-11.696-25.447-23.822-38.101-35.671-58.284 58.284-116.2 116.186-174.425 174.411 12.762 11.958 25.708 24.1 38.083 35.705 58.194-58.18 116.062-116.050 174.442-174.443z"  horiz-adv-x="1024" />

    
    <glyph glyph-name="picture" unicode="&#58891;" d="M862.669 763.982c0 17.554-14.372 31.933-31.926 31.933h-733.529c-17.563 0-31.923-14.379-31.923-31.933v-574.302c0-17.555 14.361-31.915 31.923-31.915h27.257c17.563 0 31.925 14.359 31.925 31.915v481.592c0 17.555 14.362 31.916 31.925 31.916h642.423c17.554 0 31.926 14.379 31.926 31.933l0 28.86h-0.001zM921.498 641.696h-669.629c-20.554 0-37.22-16.648-37.22-37.201v-595.224c0-20.537 16.666-37.186 37.22-37.186h669.659c20.554 0 37.181 16.649 37.181 37.186l0 595.223c-0.024 20.554-16.66 37.202-37.21 37.202v0 0zM847.086 83.71h-520.835v185.96l111.632 111.624 186.003-185.994 111.635 111.589 111.602-111.589v-111.592l-0.037-0v0.001zM772.679 381.294c-41.122 0-74.377 33.313-74.377 74.386 0 41.148 33.255 74.408 74.377 74.408 41.148 0 74.408-33.259 74.408-74.408 0-41.073-33.259-74.386-74.408-74.386v0 0zM772.679 381.294z"  horiz-adv-x="1024" />

    
    <glyph glyph-name="084tuichu" unicode="&#58969;" d="M767.986697 721.39224c29.986965-21.286816 56.608276-45.414329 79.868025-72.355935 23.316032-26.970258 43.268456-56.087413 59.914578-87.349417 16.647145-31.29168 29.291117-64.381309 37.932937-99.326193s12.991895-70.355371 12.991895-106.316397c0-61.887512-11.83249-119.945813-35.43914-174.176948-23.663956-54.231135-55.565527-101.501742-95.875604-141.754514-40.252773-40.252773-87.466074-72.181973-141.753491-95.818299-54.172807-23.635303-112.289436-35.438117-174.176948-35.438117-61.191664 0-118.90204 11.802814-173.191504 35.438117-54.172807 23.636327-101.617375 55.565527-142.218072 95.818299-40.600697 40.281425-72.501244 87.523379-95.817276 141.754514-23.317055 54.231135-34.917254 112.289436-34.917254 174.176948 0 35.265178 4.117784 69.891813 12.412704 103.821577 8.352225 33.930787 20.184715 66.207911 35.496445 96.833419 15.311731 30.594809 34.220383 59.21873 56.840566 85.841064 22.620184 26.623357 47.90915 50.576909 75.865875 71.863724 14.674211 10.643408 30.507828 14.645558 47.444569 11.977799 16.935718-2.667759 30.740118-10.962679 41.412179-24.941042 10.67206-13.977339 14.616906-29.609365 12.006452-46.922682-2.667759-17.313318-10.961656-31.29168-24.998347-41.934065-41.87676-30.595832-74.009597-68.209498-96.281857-112.783693-22.272259-44.602847-33.466206-92.510974-33.466206-143.755078 0-43.906999 8.293897-85.34783 24.998347-124.267235 16.587793-38.948057 39.382962-72.878844 68.325132-101.821013 29.000498-28.942169 62.872956-51.9113 101.849666-68.876694 38.918381-16.965393 80.331583-25.433252 124.238582-25.433252 43.964304 0 85.377506 8.467859 124.295887 25.433252s72.849168 39.933501 101.849666 68.876694c28.942169 28.942169 51.852972 62.872956 68.847018 101.821013 16.994046 38.918381 25.461905 80.359212 25.461905 124.267235 0 51.9113-12.005428 100.979856-35.961026 147.235342-23.953551 46.25651-57.537438 84.362386-100.805894 114.291023-14.615882 9.976212-23.431665 23.635303-26.448372 40.918945-3.015683 17.313318 0.521886 33.293267 10.498098 47.938825 9.976212 13.977339 23.606651 22.446221 40.891316 25.433252C737.420541 734.878392 753.370815 731.368452 767.986697 721.39224L767.986697 721.39224 767.986697 721.39224 767.986697 721.39224zM511.44895 353.057267c-17.284665 0-32.075533 6.148024-44.428885 18.473747-12.297071 12.296047-18.444071 27.115568-18.444071 44.428885L448.575993 795.257551c0 17.313318 6.148024 32.277124 18.444071 44.921095 12.353352 12.642948 27.14422 18.965957 44.428885 18.965957 17.97949 0 33.118282-6.323009 45.414329-18.965957 12.354376-12.643971 18.502399-27.607778 18.502399-44.921095l0-379.297652c0-17.313318-6.148024-32.132838-18.502399-44.428885C544.567231 359.204268 529.42844 353.057267 511.44895 353.057267L511.44895 353.057267 511.44895 353.057267 511.44895 353.057267zM511.44895 353.057267"  horiz-adv-x="1024" />

    
    <glyph glyph-name="shoucang" unicode="&#58932;" d="M928.891803 480.240694c-4.862772 14.704022-18.294016 25.021413-35.998232 27.56697L655.722604 541.920791 549.658066 754.570036c-7.909044 15.885669-21.976165 25.384918-37.634515 25.384918s-29.737759-9.499249-37.634515-25.362391L368.313235 541.920791 131.141244 507.807664c-17.726743-2.545557-31.180514-12.862948-36.009496-27.589497-4.841269-14.726549-0.057342-30.908142 12.738025-43.247848L279.510565 271.421048l-40.52105-233.762214c-2.420634-13.95551 0.670692-26.818458 8.693395-36.226574 7.260879-8.545945 18.055434-13.409741 29.6241-13.409741 7.499461 0 15.090054 1.95371 22.578252 5.864202L512.023551 104.245734l212.127027-110.359013c19.022049-9.907808 40.226151-6.500079 52.202352 7.545539 8.043182 9.408117 11.089454 22.271065 8.682131 36.226574l-40.498523 233.762214L916.165041 436.970319C928.982935 449.356103 933.710544 465.514144 928.891803 480.240694zM690.719406 303.419704c-7.13698-6.909662-10.409547-16.81747-8.726162-26.591139l36.77132-212.263213-192.607334 100.221839c-8.861324 4.635453-19.408081 4.635453-28.270429 0l-192.627814-100.221839 36.793847 212.263213c1.692601 9.77367-1.568702 19.681477-8.726162 26.591139l-155.846254 150.32303 215.365803 30.975723c9.885281 1.431492 18.431226 7.568066 22.862912 16.431438l96.314419 193.104978 96.315443-193.104978c4.430662-8.863372 12.976607-14.998922 22.861888-16.431438l215.37809-30.975723L690.719406 303.419704z"  horiz-adv-x="1024" />

    
    <glyph glyph-name="yulan" unicode="&#58951;" d="M960 124.799418 960 643.20058C949.66048 641.101768 938.958906 640 928 640 839.634438 640 768 711.63444 768 800 768 810.958907 769.101766 821.660482 771.200582 832L252.79942 832C254.898232 821.660482 256 810.958907 256 800 256 711.63444 184.36556 640 96 640 85.041093 640 74.339518 641.101768 64 643.20058L64 124.799418C74.339518 126.898234 85.041093 128 96 128 184.36556 128 256 56.365562 256-32 256-42.958906 254.898232-53.66048 252.79942-64L771.200582-64C769.101766-53.66048 768-42.958906 768-32 768 56.365562 839.634438 128 928 128 938.958906 128 949.66048 126.898234 960 124.799418ZM96 704C149.019336 704 192 746.980664 192 800 192 853.019336 149.019336 896 96 896 42.980664 896 0 853.019336 0 800 0 746.980664 42.980664 704 96 704ZM96-128C149.019336-128 192-85.019334 192-32 192 21.019334 149.019336 64 96 64 42.980664 64 0 21.019334 0-32 0-85.019334 42.980664-128 96-128ZM928 704C981.019334 704 1024 746.980664 1024 800 1024 853.019336 981.019334 896 928 896 874.980666 896 832 853.019336 832 800 832 746.980664 874.980666 704 928 704ZM928-128C981.019334-128 1024-85.019334 1024-32 1024 21.019334 981.019334 64 928 64 874.980666 64 832 21.019334 832-32 832-85.019334 874.980666-128 928-128Z"  horiz-adv-x="1024" />

    
    <glyph glyph-name="sign" unicode="&#58953;" d="M296.591495 245.088726c-12.739762 0-23.555429-10.629793-23.555429-23.766886 0-13.226033 10.558841-23.757892 23.555429-23.757892l428.151713 0c12.764346 0 23.579013 10.620799 23.579013 23.757892 0 13.232029-10.531859 23.766886-23.579013 23.766886L296.591495 245.088726zM724.743208 363.909765l-428.151713 0c-12.739762 0-23.555429-10.630792-23.555429-23.768885 0-13.222035 10.558841-23.757892 23.555429-23.757892l428.151713 0c12.764346 0 23.579013 10.629793 23.579013 23.757892C748.322222 353.372909 737.790362 363.909765 724.743208 363.909765zM296.728402 435.206226l166.485723 0c13.090125 0 23.694935 10.646781 23.694935 23.771883 0 13.218438-10.60481 23.762889-23.694935 23.762889l-166.485723 0c-13.086128 0-23.692337-10.642784-23.692337-23.762889C273.036066 445.759071 283.642474 435.206226 296.728402 435.206226zM655.311483 625.105075c0-12.820708 10.630792-23.545036 23.741903-23.545036l19.717631 0c13.206046 0 23.741903 10.535857 23.741903 23.545036L722.51292 720.59953c0 12.823306-10.629793 23.545036-23.741903 23.545036l-19.717631 0c-13.205047 0-23.741903-10.537256-23.741903-23.545036L655.311483 625.105075zM298.847565 625.105075c0-12.820708 10.629793-23.545036 23.738905-23.545036l19.718031 0c13.229031 0 23.741303 10.535857 23.741303 23.545036L366.045805 720.59953c0 12.823306-10.629793 23.545036-23.741303 23.545036l-19.718031 0c-13.226432 0-23.738905-10.537256-23.738905-23.545036L298.847565 625.105075zM843.331405 696.61639l-71.242498 0 0-61.060401 57.759839 0 0-543.285253L191.512139 92.270736 191.512139 635.555989l57.760638 0L249.272777 696.61639 178.028681 696.61639c-26.433078 0-47.577143-21.186635-47.577143-37.087255l0-570.740038c0-36.173474 21.280972-57.574764 47.577143-57.574764l665.302725 0c26.458061 0 47.576543 21.207421 47.576543 57.574764L890.907948 659.529135C890.908148 675.232888 869.601594 696.61639 843.331405 696.61639zM415.616996 696.61639 605.739293 696.61639l0-61.060401-190.122097 0L415.617196 696.61639zM744.23899 549.960223c-9.332672 9.342066-24.297526 9.294698-33.553251 0.042971l-83.874933-83.856945-34.807401 34.845775c-9.286704 9.273113-24.276541 9.342066-33.609213-0.007995-9.278709-9.273113-9.373645-24.250958-0.017988-33.605615l49.010571-48.99778c0.72251-1.000722 1.531961-1.951677 2.43435-2.859461 9.334671-9.327676 24.299525-9.286104 33.558048-0.042971l100.907385 100.923774C753.42776 525.533784 753.520697 540.678516 744.23899 549.960223z"  horiz-adv-x="1024" />

    
    <glyph glyph-name="geren2" unicode="&#58897;" d="M936.896 110.208c9.28 14.336 17.664 29.056 25.472 44.224 1.856 3.648 3.52 7.36 5.312 11.072 5.952 12.288 11.392 24.832 16.32 37.632 1.984 5.184 3.904 10.368 5.76 15.616 4.096 11.904 7.68 23.936 10.944 36.16 1.536 5.888 3.2 11.712 4.544 17.6 2.816 12.608 4.992 25.472 6.848 38.464 0.832 5.568 1.92 11.008 2.56 16.64 2.048 18.56 3.328 37.312 3.328 56.32 0 278.976-227.008 505.984-505.984 505.984S6.016 662.976 6.016 384c0-19.072 1.28-37.824 3.328-56.32 0.64-5.632 1.728-11.072 2.56-16.704 1.92-12.928 4.032-25.728 6.848-38.336 1.344-6.016 3.008-11.84 4.544-17.664 3.264-12.224 6.848-24.32 10.944-36.16 1.792-5.248 3.712-10.432 5.696-15.616 4.928-12.8 10.432-25.344 16.32-37.632 1.792-3.712 3.456-7.424 5.312-11.072 7.744-15.168 16.192-29.888 25.408-44.096 0.32-0.576 0.64-1.152 1.024-1.664C178.432-30.016 334.592-121.984 512-121.984s333.632 92.032 423.936 230.656C936.256 109.184 936.576 109.696 936.896 110.208zM512 647.552c102.592 0 185.984-83.456 185.984-185.984 0-102.656-83.456-186.176-185.984-186.176S326.016 358.912 326.016 461.568C326.016 564.096 409.408 647.552 512 647.552zM204.416 67.2C257.216 187.904 377.152 268.736 512 268.736s254.784-80.896 307.648-201.472C739.968-10.112 631.552-57.984 512-57.984 392.448-57.984 284.032-10.112 204.416 67.2z"  horiz-adv-x="1024" />

    
    <glyph glyph-name="xiangqing" unicode="&#58939;" d="M809.472 588.9536 214.528 588.9536c-14.6432 0-26.4704 11.8784-26.4704 26.4704 0 14.6432 11.8784 26.4704 26.4704 26.4704L809.472 641.8944c14.6432 0 26.4704-11.8784 26.4704-26.4704C835.9424 600.832 824.064 588.9536 809.472 588.9536L809.472 588.9536zM809.472 588.9536M469.8624 135.7824 469.8624 135.7824l-255.2832 0c-14.6432 0-26.4704 11.8784-26.4704 26.4704 0 14.6432 11.8784 26.4704 26.4704 26.4704l0 0 255.2832 0c14.6432 0 26.4704-11.8784 26.4704-26.4704C496.3328 147.6608 484.4544 135.7824 469.8624 135.7824L469.8624 135.7824zM469.8624 135.7824M809.472 362.3936 214.528 362.3936c-14.6432 0-26.4704 11.8784-26.4704 26.4704 0 14.6432 11.8784 26.4704 26.4704 26.4704L809.472 415.3344c14.6432 0 26.4704-11.8784 26.4704-26.4704C835.9424 374.2208 824.064 362.3936 809.472 362.3936L809.472 362.3936zM809.472 362.3936M749.1584-111.8208l-53.0944 0c-14.6432 0-26.4704 11.8784-26.4704 26.4704s11.8784 26.4704 26.4704 26.4704l52.8896 0c0.9216 0.1024 13.4144 2.1504 46.7456 27.5456 23.04 17.6128 50.6368 42.2912 77.568 69.5296 26.5216 26.7776 51.0976 54.5792 69.12 78.2336 24.9344 32.7168 28.2624 45.4656 28.5696 47.0528L970.9568 669.696c0 86.6304-70.5024 157.1328-157.1328 157.1328L210.0736 826.8288c-86.6304 0-157.1328-70.5024-157.1328-157.1328l0-571.392c0-86.6816 70.5024-157.1328 157.1328-157.1328L467.456-58.8288c14.6432 0 26.4704-11.8784 26.4704-26.4704s-11.8784-26.4704-26.4704-26.4704L210.0736-111.7696C94.2592-111.8208 0-17.5616 0 98.304L0 669.696c0 115.8656 94.2592 210.0736 210.0736 210.0736l603.8016 0C929.7408 879.8208 1024 785.5616 1024 669.696l0-506.6752c0-12.0832-4.1472-31.5392-36.5568-74.8032-19.3536-25.9072-46.08-56.4224-75.1616-85.8624-29.5936-30.0032-60.0576-57.2416-85.7088-76.6976C782.2848-107.9296 761.1904-111.8208 749.1584-111.8208L749.1584-111.8208zM749.1584-111.8208M692.1728-106.3424c-14.6432 0-26.4704 11.8784-26.4704 26.4704l0 133.2736c0 103.8336 84.48 188.3136 188.3136 188.3136l117.0944 0c14.6432 0 26.4704-11.8784 26.4704-26.4704 0-14.6432-11.8784-26.4704-26.4704-26.4704L854.016 188.7744c-74.6496 0-135.3728-60.7232-135.3728-135.3728l0-133.2736C718.6944-94.464 706.816-106.3424 692.1728-106.3424L692.1728-106.3424zM692.1728-106.3424"  horiz-adv-x="1024" />

    
    <glyph glyph-name="fabu" unicode="&#58885;" d="M595.2512 279.392 225.5168 279.392 225.5168 630.8352l463.8656 0 0-37.0368 97.504 0L786.8864 718.9568 128 718.9568l0-534.0736 467.2512 0L595.2512 279.392zM595.2512 279.392M707.2192 566.0416 896 349.7728l-113.536 0c0 0-24.832-281.5296-264.032-281.5296 0 0 98.176 35.6224 116.768 171.8208 3.0592 22.2528 6.0416 56.1152 6.0416 109.7856L518.4448 349.8496 707.2192 566.0416 707.2192 566.0416zM707.2192 566.0416"  horiz-adv-x="1024" />

    
    <glyph glyph-name="zhengshu-copy" unicode="&#58944;" d="M937.154-88.333c-1.485 0-2.955 0.46-4.192 1.379l-128.85 94.949-129.726-94.786c-1.238-0.897-2.7-1.359-4.171-1.359-1.089 0-2.191 0.254-3.203 0.764-2.368 1.209-3.868 3.642-3.868 6.305v191.509c0 2.271 1.089 4.405 2.928 5.733 1.223 0.885 2.673 1.337 4.143 1.337 0.743 0 1.498-0.121 2.22-0.361l45.813-15.172c2.977-0.855 5.21-3.579 5.21-6.794v-71.362l76.624 55.959c1.244 0.906 2.708 1.359 4.171 1.359 1.471 0 2.948-0.46 4.192-1.379l75.436-55.583v71.010c0 3.019 1.917 5.698 4.765 6.681l46.188 15.964c0.75 0.26 1.534 0.389 2.305 0.389 1.451 0 2.884-0.447 4.1-1.314 1.867-1.329 2.969-3.472 2.969-5.755v-192.395c0-2.665-1.498-5.113-3.881-6.314-0.996-0.51-2.085-0.764-3.173-0.764zM134.749-55.301c-60.178 0-109.137 48.959-109.137 109.147v694.208c0 60.188 48.959 109.153 109.137 109.153h605.566c60.199 0 109.173-48.966 109.173-109.153v-216.558c0-3.902-3.162-7.069-7.069-7.069h-44.993c-3.909 0-7.069 3.168-7.069 7.069v216.553c0 27.586-22.447 50.034-50.026 50.034h-605.573c-27.586 0-50.034-22.447-50.034-50.034v-694.194c0-27.58 22.447-50.026 50.034-50.026h470.241c3.909 0 7.069-3.162 7.069-7.069v-44.987c0-3.909-3.162-7.069-7.069-7.069h-470.247zM803.66 95.322c-112.142 0-203.386 91.229-203.386 203.373s91.238 203.38 203.386 203.38c112.151 0 203.401-91.238 203.401-203.38-0.005-112.142-91.252-203.373-203.401-203.373zM803.66 441.741c-78.879 0-143.053-64.173-143.053-143.046 0-78.879 64.173-143.053 143.053-143.053s143.053 64.173 143.053 143.053c0 78.873-64.173 143.046-143.053 143.046zM193.537 135.133c-3.902 0-7.069 3.162-7.069 7.069v49.213c0 3.909 3.168 7.069 7.069 7.069h356.111c3.909 0 7.069-3.162 7.069-7.069v-49.213c0-3.909-3.162-7.069-7.069-7.069h-356.111zM803.691 210.787c-48.471 0-87.913 39.436-87.913 87.907s39.436 87.907 87.913 87.907c48.465 0 87.907-39.436 87.907-87.907s-39.442-87.907-87.907-87.907zM803.691 349.372c-27.94 0-50.669-22.737-50.669-50.677s22.731-50.677 50.669-50.677c27.934 0 50.663 22.737 50.663 50.677s-22.731 50.677-50.663 50.677zM193.537 291.646c-3.902 0-7.069 3.162-7.069 7.069v49.213c0 3.909 3.168 7.069 7.069 7.069h356.111c3.909 0 7.069-3.162 7.069-7.069v-49.213c0-3.909-3.162-7.069-7.069-7.069h-356.111zM193.537 446.901c-3.902 0-7.069 3.168-7.069 7.069v49.213c0 3.902 3.168 7.069 7.069 7.069h356.111c3.909 0 7.069-3.168 7.069-7.069v-49.213c0-3.902-3.162-7.069-7.069-7.069h-356.111zM193.537 603.422c-3.902 0-7.069 3.168-7.069 7.069v49.206c0 3.902 3.168 7.069 7.069 7.069h488.028c3.909 0 7.069-3.168 7.069-7.069v-49.206c0-3.902-3.162-7.069-7.069-7.069h-488.028z"  horiz-adv-x="1024" />

    
    <glyph glyph-name="wodebaoming" unicode="&#58983;" d="M360.96 504.5248c-9.9328 9.9328-26.2144 9.9328-36.2496 0-9.9328-9.9328-9.9328-26.2144 0-36.2496l181.0432-181.0432c9.9328-9.9328 26.2144-9.9328 36.2496 0l361.984 362.0864c9.9328 9.9328 9.9328 26.2144 0 36.2496-9.9328 9.9328-26.2144 9.9328-36.2496 0L523.8784 341.6064 360.96 504.5248zM902.2464 575.488l-38.2976-38.2976c20.48-47.0016 32.0512-98.7136 32.0512-153.1904 0-211.7632-172.2368-384-384-384S128 172.2368 128 384s172.2368 384 384 384c101.1712 0 193.024-39.6288 261.7344-103.8336l36.1472 36.1472C731.9552 773.8368 627.3024 819.2 512 819.2 271.9744 819.2 76.8 624.0256 76.8 384s195.1744-435.2 435.2-435.2 435.2 195.1744 435.2 435.2C947.2 452.8128 930.7136 517.632 902.2464 575.488z"  horiz-adv-x="1024" />

    
    <glyph glyph-name="saishi" unicode="&#58952;" d="M914.89714 776.036791 816.70477 776.036791 816.70477 788.442332c0 27.174919-22.069645 49.202609-49.293683 49.202609L251.827469 837.644941c-27.225061 0-49.294706-22.028713-49.294706-49.202609l0-12.405541-93.430926 0c-58.533115 0-106.154715-47.532573-106.155738-105.95824l0-122.608455c0-121.417327 97.430006-220.547045 218.3541-223.589334 35.525098-87.237877 118.201076-148.312884 219.426525-148.312884l24.245194 0c0.089028 0 0.161682-0.071631 0.161682-0.161682L465.133599 28.601664c0-0.089028-0.071631-0.161682-0.161682-0.161682L316.640614 28.439982c-26.131147 0-47.495734-20.3597-49.043996-46.052872-1.708921-28.366048 21.61325-52.033074 50.082652-52.033074l392.032698 0c26.128077 0 47.495734 20.3597 49.042973 46.052872 1.708921 28.366048-21.614274 52.033074-50.083675 52.033074L563.561329 28.439982c-0.089028 0-0.161682 0.071631-0.161682 0.161682l0.001023 146.808624c0 0.088004 0.070608 0.159636 0.158612 0.159636 101.106746 0.065492 192.155415 61.10059 231.946676 148.257625 0.490164-0.005117 0.977257-0.01842 1.467421-0.01842 123.55706 0 224.077451 100.333126 224.077451 223.660966L1021.050832 670.078551C1021.052878 728.504218 973.433324 776.036791 914.89714 776.036791L914.89714 776.036791zM62.943564 547.470095 62.943564 670.077527c0 25.405623 20.707624 46.073338 46.158273 46.073338l93.430926 0 0-295.206442c0-12.149714 0.836041-24.087605 2.433422-35.763528C124.886335 395.968589 62.943564 464.631412 62.943564 547.470095L62.943564 547.470095zM686.004009 617.476519l-79.974449-83.101673c-0.016373-0.047072-0.028653-0.086981-0.044002-0.134053l14.520715-113.169479c0.017396-0.125867-0.110517-0.218988-0.225127-0.166799l-105.946984 48.40136c-0.046049 0-0.088004 0-0.13303 0l-105.945961-48.40136c-0.11461-0.052189-0.242524 0.041956-0.226151 0.166799l14.521738 113.169479c-0.016373 0.047072-0.028653 0.086981-0.044002 0.134053l-79.976496 83.101673c-0.088004 0.092098-0.037862 0.246617 0.089028 0.271176l114.900913 21.509896c0.038886 0.026606 0.071631 0.051165 0.110517 0.077771l56.638975 100.225679 56.638975-100.225679c0.038886-0.026606 0.072655-0.051165 0.11154-0.077771l114.900913-21.509896C686.042895 617.723136 686.093037 617.568616 686.004009 617.476519L686.004009 617.476519zM961.055412 547.470095c0-84.618213-64.627926-154.452721-147.202597-162.913417 1.86958 11.822257 2.851954 23.917736 2.851954 36.227086L816.70477 716.150866l98.19237 0c25.452695 0 46.158273-20.667715 46.158273-46.071292L961.055412 547.470095 961.055412 547.470095z"  horiz-adv-x="1024" />

    
    <glyph glyph-name="svg45-copy" unicode="&#58973;" d="M545.997 808.789c-14.95 7.031-32.597 4.71-45.295-5.837l-244.838-203.776-195.311 0.785c-11.23 0-22.050-4.437-30.003-12.39-8.021-7.953-12.561-18.773-12.561-30.106l-0.887-340.548c0-11.332 4.437-22.187 12.425-30.174 7.953-8.055 18.807-12.527 30.14-12.527h197.461l243.61-203.025c7.782-6.485 17.51-9.83 27.238-9.83 6.144 0 12.288 1.331 18.057 4.028 14.95 6.997 24.508 22.016 24.508 38.537v766.327c0 16.486-9.557 31.505-24.542 38.537v0zM711.066 595.934c-20.992 9.933-45.943 0.887-56.149-20.002-10.172-20.958-1.365-46.319 19.456-56.798 2.697-1.399 66.458-34.543 66.458-128.922 0-100.83-59.631-134.246-61.611-135.339-21.026-10.513-29.559-36.113-19.046-57.139 7.509-14.95 22.494-23.552 38.161-23.552 6.383 0 12.902 1.434 18.978 4.471 4.437 2.253 108.646 56.183 108.646 211.558 0 149.914-110.217 203.503-114.893 205.722v0zM843.606 720.964c-19.627 12.595-45.67 6.861-58.505-12.732-12.766-19.593-7.168-45.943 12.356-58.846 4.608-3.038 113.664-77.346 113.664-262.315 0-185.378-104.619-259.755-108.783-262.588-19.593-13.073-24.849-39.458-11.81-59.051 8.192-12.288 21.709-18.944 35.465-18.944 8.090 0 16.316 2.355 23.586 7.168 5.973 3.959 146.671 100.42 146.671 333.449 0 233.472-146.398 329.865-152.644 333.858v0zM843.606 720.964z"  horiz-adv-x="1024" />

    
    <glyph glyph-name="sousuo5" unicode="&#58901;" d="M936.264796 41.660074 757.429759 220.480786c46.499034 63.167668 74.019831 141.124158 74.019831 225.397516 0 210.099089-170.944324 381.038296-381.054669 381.038296s-381.048529-170.939207-381.048529-381.038296c0-210.105229 170.939207-381.043413 381.048529-381.043413 84.275405 0 162.234965 27.519774 225.40468 74.018807l178.832991-178.818665c11.270694-11.264555 26.03598-16.902972 40.813544-16.902972 14.776542 0 29.54285 5.638417 40.818661 16.902972C958.801069-17.419486 958.801069 19.125849 936.264796 41.660074zM163.139567 445.878303c0 158.388357 128.86188 287.25126 287.256376 287.25126s287.261493-128.86188 287.261493-287.25126c0-158.390403-128.866996-287.252283-287.261493-287.252283S163.139567 287.487899 163.139567 445.878303z"  horiz-adv-x="1024" />

    
    <glyph glyph-name="tianjia" unicode="&#58933;" d="M512-128C229.239611-128 0.017919 101.258262 0.017919 384.01865 0.017919 666.77904 229.239611 896.000731 512 896.000731 794.760389 896.000731 1023.982081 666.77904 1023.982081 384.01865 1023.982081 101.258262 794.760389-128 512-128ZM512 822.823864C269.649625 822.823864 73.158216 626.332455 73.158216 383.982081 73.158216 141.631706 269.649625-54.859703 512-54.859703 754.350375-54.859703 950.841784 141.631706 950.841784 383.982081 950.841784 626.332455 754.350375 822.823864 512 822.823864ZM548.570149 164.561189 475.429851 164.561189 475.429851 347.411932 292.579109 347.411932 292.579109 420.588799 475.429851 420.588799 475.429851 603.439543 548.570149 603.439543 548.570149 420.588799 731.420891 420.588799 731.420891 347.411932 548.570149 347.411932 548.570149 164.561189Z"  horiz-adv-x="1024" />

    
    <glyph glyph-name="wanshanxinxi1" unicode="&#58902;" d="M45.44 379.76576c0 114.31424-0.17408 228.6336 0.0512 342.95296C45.69088 821.77536 103.64928 881.152 202.20928 881.41312c209.01376 0.57344 418.03264 0.51712 627.05152 0.03584 97.4336-0.22528 157.30688-61.12256 157.47584-158.82752 0.2304-134.79424 0.1024-269.58336-0.0512-404.3776-0.01024-8.42752 1.41312-19.24608-3.03616-24.7296-7.24992-8.9344-19.71712-20.85888-28.28288-19.6352-10.29632 1.47456-20.30592 14.32576-27.47904 24.36096-3.68128 5.15584-1.0496 14.90944-1.0496 22.5792-0.0256 133.94432 0.0256 267.88352-0.04096 401.82272-0.03072 65.8432-34.80576 100.60288-101.26848 100.64896-207.3088 0.13824-414.6176 0.15872-621.93152-0.01536-63.8208-0.05632-98.432-34.5344-98.4576-97.7664-0.11264-231.1936-0.11264-462.39744 0-693.59104 0.03072-65.21344 34.0224-98.7648 99.69152-98.8416 86.16448-0.09728 172.32896 0.03584 258.49856-0.06144 27.74528-0.03584 42.35264-10.61376 42.02496-29.85984-0.32256-18.7136-15.60576-29.56288-42.96192-29.60896-87.87456-0.14336-175.74912-0.5376-263.61856 0.08704-90.89024 0.64512-152.29952 61.55264-153.01632 152.9344-0.92672 117.72416-0.22528 235.45856-0.22528 353.19296C45.49632 379.76576 45.47072 379.76576 45.44 379.76576zM721.24416-52.99712c-4.72064-6.8352-8.90368-12.89728-14.85824-21.51424 13.53216 0 24.03328 0 37.56544 0-5.92384 7.6544-10.77248 13.91616-17.03424 22.016 12.52864 13.09184 25.28768 26.5216 38.15424 39.84896 54.52288 56.4736 108.9536 113.0496 163.712 169.30816 18.0224 18.51904 35.65568 20.60288 48.68096 5.84704 15.2576-17.29536 8.25856-32.6912-5.70368-47.11936-73.00608-75.40736-145.792-151.02976-218.92096-226.31424-19.09248-19.65568-32.04096-20.0704-52.93568-2.10432-26.52672 22.80448-52.38272 46.37696-78.7456 69.38112-15.7696 13.76256-21.9136 29.67552-6.49728 46.33088 14.336 15.47776 30.96576 11.16672 45.48608-1.36704C680.78592-16.50176 700.93312-34.88768 721.24416-52.99712zM515.95264 590.29504c-62.99136 0-125.9776-0.14336-188.96896 0.06656-27.92448 0.09216-41.84576 10.60864-40.39168 30.91456 1.77664 24.83712 19.1232 28.72832 39.8848 28.69248 125.9776-0.2304 251.9552-0.06144 377.93792-0.1536 27.09504-0.02048 43.14112-11.43808 41.02656-30.50496-2.61632-23.5776-19.52256-29.2096-40.51456-29.11744C641.93536 590.47936 578.944 590.29504 515.95264 590.29504zM514.27328 352.32256c-63.10912 0.00512-126.21824-0.16384-189.32736 0.08704-26.7776 0.10752-39.51104 10.0352-38.43072 29.78816 1.29536 23.70048 17.536 28.40064 37.48352 28.38528 127.9232-0.1024 255.85152-0.17408 383.7696 0.08704 20.608 0.04096 35.73248-6.55872 37.78048-28.83072 1.67936-18.28352-13.56288-29.34272-39.38816-29.44C642.2016 352.16384 578.24256 352.32256 514.27328 352.32256zM394.20416 113.0496c-24.64768 0.00512-49.29536 0-73.94816 0.00512-19.82464 0.00512-33.39776 8.17152-33.57696 29.47584-0.1792 21.70368 14.5408 29.63456 33.61792 29.824 50.14016 0.50176 100.29568 0.41472 150.44096 0.0512 19.49184-0.13824 34.15552-9.56416 34.03776-29.9776-0.11776-20.1728-13.9008-29.57312-34.07872-29.42464C445.20448 113.18784 419.70176 113.04448 394.20416 113.0496z"  horiz-adv-x="1024" />

    
    <glyph glyph-name="guizhangzhidu" unicode="&#58967;" d="M294.19695 572.894138 294.19695 572.894138zM118.170888 710.479703c0 40.593534 37.594223 68.505233 83.804684 68.505233l731.12158 0c15.105023 0 27.350928 15.872502 27.350928 29.142737 0 13.269211-12.245905 24.02723-27.350928 24.02723l-731.12158 0c-76.370365 0-138.502447-54.584176-138.502447-121.6752L63.473125 59.311083c0-67.092048 62.132082-121.674177 138.502447-121.674177l758.471484 0L960.447057 636.857938 201.975573 636.857938C155.766135 636.857938 118.170888 669.883099 118.170888 710.479703L118.170888 710.479703zM908.479475-14.309658 196.327946-14.309658c-46.759977 0-84.802408 32.862455-84.802408 73.261561L111.525538 610.593761c23.560602-15.515369 52.958142-24.738427 84.802408-24.738427l712.151529 0L908.479475-14.309658 908.479475-14.309658zM875.025549 739.811752 238.056326 739.811752c-13.270235 0-24.026206-12.339026-24.026206-27.555589 0-15.21861 10.755971-27.557636 24.026206-27.557636l636.969223 0c13.270235 0 24.026206 12.339026 24.026206 27.557636C899.051755 727.472725 888.29476 739.811752 875.025549 739.811752L875.025549 739.811752zM371.821889 448.243163l410.67529 0c14.761192 0 26.719548 12.33698 26.719548 27.556613s-11.95938 27.556613-26.719548 27.556613L371.821889 503.356388c-14.755052 0-26.718525-12.33698-26.718525-27.556613S357.066837 448.243163 371.821889 448.243163L371.821889 448.243163zM371.821889 278.230048l410.67529 0c14.761192 0 26.719548 11.68718 26.719548 26.106588s-11.95938 26.107611-26.719548 26.107611L371.821889 330.444247c-14.755052 0-26.718525-11.688203-26.718525-26.107611S357.066837 278.230048 371.821889 278.230048L371.821889 278.230048zM371.821889 105.314837l410.67529 0c14.761192 0 26.719548 12.338003 26.719548 27.556613s-11.95938 27.556613-26.719548 27.556613L371.821889 160.428062c-14.755052 0-26.718525-12.338003-26.718525-27.556613S357.066837 105.314837 371.821889 105.314837L371.821889 105.314837zM260.443196 448.243163c15.195074 0 27.557636 12.361539 27.557636 27.557636 0 15.195074-12.362562 27.555589-27.557636 27.555589-15.195074 0-27.555589-12.361539-27.555589-27.555589C232.886583 460.605725 245.248122 448.243163 260.443196 448.243163L260.443196 448.243163zM260.443196 279.39764c15.196097 0 27.557636 12.361539 27.557636 27.557636 0 15.195074-12.361539 27.555589-27.557636 27.555589-15.195074 0-27.555589-12.361539-27.555589-27.555589C232.887606 291.759179 245.248122 279.39764 260.443196 279.39764L260.443196 279.39764zM262.489808 105.435587c15.196097 0 27.557636 12.361539 27.557636 27.557636 0 15.195074-12.361539 27.555589-27.557636 27.555589-15.195074 0-27.555589-12.361539-27.555589-27.555589C234.934219 117.797126 247.294734 105.435587 262.489808 105.435587L262.489808 105.435587z"  horiz-adv-x="1024" />

    
    <glyph glyph-name="xiangqing1" unicode="&#58896;" d="M348.16 693.76v179.2l-256-217.6H307.2c20.48 0 40.96 17.92 40.96 38.4z m-58.88-2.56H166.4l145.92 110.08v-89.6c-2.56-10.24-12.8-20.48-23.04-20.48z m440.32-399.36H291.84c-10.24 0-17.92-10.24-17.92-25.6v-25.6c0-12.8 7.68-25.6 17.92-25.6h437.76c10.24 0 17.92 10.24 17.92 25.6v25.6c0 15.36-7.68 25.6-17.92 25.6zM860.16 872.96H360.96v-202.24c0-17.92-17.92-38.4-35.84-38.4h-230.4v-704c0-17.92 17.92-38.4 35.84-38.4h727.04c17.92 0 35.84 23.04 35.84 40.96V839.68c0 17.92-15.36 33.28-33.28 33.28z m-5.12-906.24c0-17.92-15.36-38.4-33.28-38.4H161.28c-17.92-2.56-33.28 17.92-33.28 35.84v614.4h209.92c15.36 0 69.12 56.32 69.12 71.68V834.56h417.28c15.36 0 28.16-12.8 28.16-30.72v-837.12z m-125.44 504.32H291.84c-10.24 0-17.92-10.24-17.92-23.04v-23.04c0-12.8 7.68-23.04 17.92-23.04h437.76c10.24 0 17.92 10.24 17.92 23.04v23.04c0 12.8-7.68 23.04-17.92 23.04z m0-360.96H291.84c-10.24 0-17.92-10.24-17.92-23.04v-25.6c0-12.8 7.68-25.6 17.92-25.6h437.76c10.24 0 17.92 10.24 17.92 25.6v25.6c0 10.24-7.68 23.04-17.92 23.04z"  horiz-adv-x="1024" />

    
    <glyph glyph-name="fapiaoyoujidizhi" unicode="&#58976;" d="M1012.043294 698.458353L669.153882 419.84l340.87153-354.424471A123.422118 123.422118 0 0 1 1024 122.518588V645.481412c0 18.913882-4.276706 36.894118-11.956706 52.976941zM615.996235 379.422118L512 290.454588l-106.586353 88.335059-350.659765-359.002353a123.181176 123.181176 0 0 1 69.300706-21.323294h775.890824a123.181176 123.181176 0 0 1 63.698823 17.739294l-347.648 363.218824zM55.928471 749.025882L512 383.578353 968.071529 748.995765a122.88 122.88 0 0 1-68.126117 20.510117H124.054588c-25.118118 0-48.549647-7.529412-68.126117-20.48zM356.050824 418.665412L12.468706 699.452235A122.729412 122.729412 0 0 1 0 645.481412v-522.932706c0-20.570353 5.12-39.996235 14.064941-57.103059l341.985883 353.219765z"  horiz-adv-x="1024" />

    
    <glyph glyph-name="huiyuanjulebu" unicode="&#59194;" d="M924.8 560l-208-128c-3.2-3.2-3.2-3.2-6.4 0L512 684.8c-3.2 3.2-3.2 3.2-6.4 0l-224-252.8c-3.2-3.2-3.2-3.2-6.4 0l-179.2 128c-3.2 3.2-6.4 0-6.4-3.2L160 102.4c0-6.4 6.4-9.6 12.8-9.6h662.4c6.4 0 9.6 3.2 12.8 9.6l83.2 451.2c0 6.4-3.2 9.6-6.4 6.4zM806.4 38.4H201.6c-16 0-32-12.8-32-32v-22.4c0-16 12.8-32 32-32h608c16 0 32 12.8 28.8 32v22.4c0 16-16 32-32 32zM57.6 617.6m-57.6 0a57.6 57.6 0 1 1 115.2 0 57.6 57.6 0 1 1-115.2 0ZM512 755.2m-57.6 0a57.6 57.6 0 1 1 115.2 0 57.6 57.6 0 1 1-115.2 0ZM966.4 617.6m-57.6 0a57.6 57.6 0 1 1 115.2 0 57.6 57.6 0 1 1-115.2 0Z"  horiz-adv-x="1024" />

    
    <glyph glyph-name="xiazai1" unicode="&#58937;" d="M820.156894 418.238802l-205.438952 0L614.717941 829.115684l-205.438952 0 0-410.877905L203.842083 418.237779l308.157405-273.915533L820.156894 418.238802zM203.842083-61.115684l616.313787 0 0 68.477604L203.842083 7.361921 203.842083-61.115684z"  horiz-adv-x="1024" />

    
    <glyph glyph-name="tiyu" unicode="&#58883;" d="M900.662 48.248L564.915 384.02l60.693 60.675C743.969 342.674 896.079 308.009 1024 344.166c-8.195-106.383-49.393-210.393-123.338-295.918z m-777.36 0C50.502 132.428 9.285 234.552 0.218 339.17c104.376 39.729 236.966 13.497 340.628-73.41L123.302 48.25z m506.9 506.921C543.279 658.888 517.456 791.316 557.318 895.77 661.82 886.619 763.707 845.38 847.767 772.7L630.203 555.17zM393.775 212.83c86.945-103.699 112.778-236.233 72.947-340.622-104.491 9.193-206.42 50.391-290.49 123.09l217.543 217.531z m629.962 216.606c-104.384-39.913-236.85-14.144-340.615 72.783L900.685 719.75c72.632-83.988 113.879-185.858 123.051-290.314zM471.736 896c-36.042-127.939-1.029-280.074 100.944-398.4l-60.693-60.672L176.23 772.68C261.652 846.554 365.524 887.73 471.736 896zM123.302 719.75l335.77-335.73-60.692-60.692C280.049 425.3 127.94 460.18 0 424.084c8.246 106.343 49.431 210.25 123.302 295.665zM552.146-128c36.065 127.933 1.144 280.072-100.83 398.397l60.681 60.672L847.77-4.68c-85.48-73.9-189.374-115.05-295.624-123.32z"  horiz-adv-x="1024" />

    
    <glyph glyph-name="gonggao" unicode="&#59001;" d="M626.912-57.144c-7.099 0.002-13.566 2.707-18.429 7.141l-267.808 240.998h-154.89c-44.344 0-110.286 29.377-110.286 110.286v165.42c0 44.344 29.394 110.286 110.276 110.286h154.838l267.831 241.074c8.092 7.335 19.736 9.099 29.654 4.68 9.729-4.386 16.38-14 16.38-25.166 0-0.011 0-0.023 0-0.036v-827.107c0-10.872-6.345-20.791-16.317-25.209-3.304-1.496-7.163-2.367-11.227-2.367-0.007 0-0.017 0-0.024 0zM185.777 521.835c-52.497 0-55.133-45.927-55.133-55.143v-165.421c0-52.433 45.936-55.143 55.133-55.143h165.419c6.841 0 13.402-2.529 18.415-7.119l229.725-206.658v703.278l-229.653-206.677c-5.076-4.571-11.628-7.119-18.477-7.119h-165.428zM764.756 549.411c-6.994 0-14.104 2.708-19.512 8.055-10.755 10.746-10.755 28.233 0 38.988l110.285 110.286c10.747 10.737 28.216 10.737 38.989 0 10.747-10.754 10.747-28.242 0-38.997l-110.276-110.276c-5.364-5.347-12.357-8.055-19.485-8.055zM930.184 356.424h-165.428c-15.157 0-27.568 12.339-27.568 27.567 0 15.219 12.411 27.567 27.567 27.567h165.429c15.273 0 27.567-12.357 27.567-27.567 0-15.228-12.294-27.567-27.567-27.567zM875.041 53.142c-7.62 0.011-14.519 3.092-19.527 8.071l-110.27 110.27c-10.755 10.747-10.755 28.216 0 38.989 10.746 10.737 28.215 10.737 38.997 0l110.276-110.276c10.747-10.773 10.747-28.252 0-38.997-5.354-5.355-12.348-8.055-19.476-8.055zM875.041 53.142z"  horiz-adv-x="1024" />

    
    <glyph glyph-name="dianzan" unicode="&#58940;" d="M776.27 0H167.94a64.07 64.07 0 0 0-64 64V432a64.07 64.07 0 0 0 64 64h176c41 0 62.55 48.39 90.7 122.21 12.83 33.65 26.1 68.44 44 95.48 23.86 36 53.91 54.31 89.29 54.31 32.82 0 76.83-8.55 100.12-49.27 13-22.74 17.26-52.31 12.65-87.91-3.27-25.3-11.06-54.23-23.14-86-6.76-17.82-14.12-34.48-20.92-48.82H856a64 64 0 0 0 62.49-77.81l-79.71-367.91v-0.16A64 64 0 0 0 776.27 0zM167.94 432v-368h608.33L856 431.84V432H583.94a32 32 0 0 0-27.58 48.22 657.55 657.55 0 0 1 41.7 88.15c29.59 78.13 20 109 14.45 118.59-2.41 4.21-9.75 17-44.56 17-29.85 0-48.49-43-73.5-108.6-13.95-36.57-28.37-74.38-49.08-104.47-26.92-39.11-61-58.94-101.42-58.94z m688.19 0zM263.94 464h64v-432h-64z"  horiz-adv-x="1024" />

    
    <glyph glyph-name="xinzeng" unicode="&#58914;" d="M631.466667 503.466667V896h-238.933334v-392.533333H0v-238.933334h392.533333V-128h238.933334v392.533333h392.533333v238.933334z"  horiz-adv-x="1024" />

    
    <glyph glyph-name="dizhi" unicode="&#58942;" d="M512-116.8c-253.6 0-511.2 54.4-511.2 158.4 0 92.8 198.4 131.2 283.2 143.2h3.2c12 0 22.4-8.8 24-20.8 0.8-6.4-0.8-12.8-4.8-17.6-4-4.8-9.6-8.8-16-9.6-176.8-25.6-242.4-72-242.4-96 0-44.8 180.8-110.4 463.2-110.4s463.2 65.6 463.2 110.4c0 24-66.4 70.4-244.8 96-6.4 0.8-12 4-16 9.6-4 4.8-5.6 11.2-4.8 17.6 1.6 12 12 20.8 24 20.8h3.2c85.6-12 285.6-50.4 285.6-143.2 0.8-103.2-256-158.4-509.6-158.4z m-16.8 169.6c-12 11.2-288.8 272.8-288.8 529.6 0 168 136.8 304.8 304.8 304.8S816 750.4 816 582.4c0-249.6-276.8-517.6-288.8-528.8l-16-16-16 15.2zM512 839.2c-141.6 0-256.8-115.2-256.8-256.8 0-200.8 196-416 256.8-477.6 61.6 63.2 257.6 282.4 257.6 477.6C768.8 723.2 653.6 839.2 512 839.2z m0-392.8c-80 0-144.8 64.8-144.8 144.8S432 736 512 736c80 0 144.8-64.8 144.8-144.8 0-80-64.8-144.8-144.8-144.8zM512 688c-53.6 0-96.8-43.2-96.8-96.8S458.4 494.4 512 494.4c53.6 0 96.8 43.2 96.8 96.8S564.8 688 512 688z"  horiz-adv-x="1024" />

    
    <glyph glyph-name="tongguo" unicode="&#58930;" d="M510.438 831.871c-246.87 0-446.998-200.128-446.998-446.998s200.128-446.998 446.998-446.998 446.998 200.128 446.998 446.998S757.308 831.871 510.438 831.871zM722.674 492.7L455.859 233.972a29.918 29.918 0 0 0-20.885-8.463 29.91 29.91 0 0 0-20.57 8.164L298.515 342.846c-12.06 11.361-12.626 30.348-1.265 42.408 11.361 12.059 30.348 12.625 42.408 1.265l95.018-89.512 246.229 238.768c11.896 11.533 30.888 11.242 42.422-0.653s11.241-30.888-0.653-42.422z"  horiz-adv-x="1024" />

    
    <glyph glyph-name="butongguo" unicode="&#58934;" d="M511.563 830.856c-246.87 0-446.998-200.128-446.998-446.998S264.693-63.14 511.563-63.14 958.56 136.988 958.56 383.859 758.433 830.856 511.563 830.856z m178.524-582.517c11.716-11.716 11.716-30.71 0-42.426-5.857-5.858-13.535-8.787-21.213-8.787s-15.355 2.929-21.213 8.787L513.535 340.039 379.41 205.913c-5.858-5.858-13.536-8.787-21.213-8.787s-15.355 2.929-21.213 8.787c-11.715 11.716-11.715 30.71 0 42.426L471.11 382.465 336.983 516.59c-11.715 11.716-11.715 30.711 0 42.427 11.716 11.716 30.711 11.716 42.427 0l134.126-134.126 134.126 134.126c11.715 11.716 30.711 11.716 42.426 0 11.716-11.716 11.716-30.711 0-42.427L555.961 382.465l134.126-134.126z"  horiz-adv-x="1024" />

    
    <glyph glyph-name="fenlei" unicode="&#58903;" d="M640.8-127.2c-49.6 0-92.8 64-92.8 116.8V254.4c0 51.2 41.6 92.8 92.8 92.8h289.6c51.2 0 92.8-41.6 92.8-92.8v-288.8c0-51.2-41.6-92.8-92.8-92.8H640.8z m1.6 426.4c-26.4 0-48-21.6-48-48v-285.6c0-26.4 21.6-48 48-48H928c26.4 0 48 21.6 48 48V251.2c0 26.4-21.6 48-48 48H642.4z m-548.8-426.4c-49.6 0-92.8 64-92.8 116.8V254.4c0 51.2 41.6 92.8 92.8 92.8h289.6c51.2 0 92.8-41.6 92.8-92.8v-288.8c0-51.2-41.6-92.8-92.8-92.8H93.6z m1.6 426.4c-26.4 0-48-21.6-48-48v-285.6c0-26.4 21.6-48 48-48h285.6c26.4 0 48 21.6 48 48V251.2c0 26.4-21.6 48-48 48H95.2z m545.6 120.8c-49.6 0-92.8 64-92.8 116.8V801.6C548 852.8 589.6 894.4 640.8 894.4h289.6c51.2 0 92.8-41.6 92.8-92.8v-288.8c0-51.2-41.6-92.8-92.8-92.8H640.8z m1.6 426.4c-26.4 0-48-21.6-48-48v-285.6c0-26.4 21.6-48 48-48H928c26.4 0 48 21.6 48 48V798.4c0 26.4-21.6 48-48 48H642.4zM93.6 420C44 420 0.8 484 0.8 536.8V801.6C0.8 852.8 42.4 894.4 93.6 894.4h289.6c51.2 0 92.8-41.6 92.8-92.8v-288.8c0-51.2-41.6-92.8-92.8-92.8H93.6z m1.6 426.4c-26.4 0-48-21.6-48-48v-285.6c0-26.4 21.6-48 48-48h285.6c26.4 0 48 21.6 48 48V798.4c0 26.4-21.6 48-48 48H95.2z"  horiz-adv-x="1024" />

    
    <glyph glyph-name="dianzizhengzhao" unicode="&#58894;" d="M138.656 769.344A138.656 138.656 0 0 1 0 630.656V80a138.656 138.656 0 0 1 138.656-138.656h746.656a138.656 138.656 0 0 1 138.656 138.656V630.656a138.656 138.656 0 0 1-138.656 138.656H138.656z m476.928-655.712c0-20.768-16.832-37.568-37.568-37.568H180.864a37.568 37.568 0 0 0-37.568 37.568v32.992a119.008 119.008 0 0 0 119.008 119.008h30.72a28.864 28.864 0 0 1 28.864 28.864 21.984 21.984 0 0 1-6.624 15.712c-17.6 17.152-32.448 40.064-43.264 64.832a11.936 11.936 0 0 0-5.952-1.664c-17.248 0-37.504 38.112-37.504 64.096s2.4 47.04 19.648 47.04c1.472 0 3.072-0.352 4.64-0.64 1.248 70.4 14.368 158.144 126.624 158.144 107.616 0 125.408-87.936 126.656-158.4a25.728 25.728 0 0 0 6.432 0.896c17.248 0 19.648-21.056 19.648-47.04 0-25.984-20.256-64.096-37.504-64.096a12.128 12.128 0 0 0-7.264 2.816c-10.88-25.216-25.888-48.576-43.776-65.984a21.984 21.984 0 0 1-6.624-15.712c0-15.936 12.928-28.864 28.864-28.864h30.72a119.008 119.008 0 0 0 119.008-119.008v-32.992z m265.152 42.528a27.84 27.84 0 0 0-27.84-27.84h-202.752v18.304c0 29.984-8.768 57.888-23.68 81.568h226.432c15.392 0 27.84-12.48 27.84-27.84v-44.192z m0 181.984a27.84 27.84 0 0 0-27.84-27.84H506.176v26.464c0.8 1.44 1.728 2.752 2.528 4.224 26.784 8.32 46.24 39.424 54.08 69.184h290.08c15.392 0 27.84-12.48 27.84-27.84v-44.192z m0 181.952a27.84 27.84 0 0 0-27.84-27.84h-296.896c-4.352 8.544-9.696 15.648-16.832 20.032-2.848 32.384-9.728 58.56-19.328 79.84h333.056c15.392 0 27.84-12.48 27.84-27.84v-44.192z"  horiz-adv-x="1024" />

    
    <glyph glyph-name="electricity_icon" unicode="&#58990;" d="M793.684 538.429c-4.666 9.685-14.406 16.25-25.68 16.25-0.008 0-0.016-0-0.023-0l-188.686 0 178.939 298.242c2.55 4.179 4.060 9.235 4.060 14.643 0 15.705-12.731 28.436-28.436 28.436-0.005 0-0.011-0-0.016-0l-273.052 0c-11.908-0.001-22.108-7.317-26.35-17.699l-204.863-512.176c-1.285-3.126-2.032-6.754-2.032-10.557 0-15.71 12.736-28.446 28.446-28.446 0.001 0 0.003 0 0.004 0l129.614-0-156.238-416.654c-1.154-2.976-1.823-6.42-1.823-10.020 0-15.71 12.736-28.446 28.446-28.446 8.869 0 16.79 4.059 22.007 10.42l512.026 625.81c3.991 4.858 6.411 11.14 6.411 17.986 0 4.438-1.016 8.638-2.829 12.38zM343.187 51.939l110.108 293.634c1.148 2.968 1.813 6.404 1.813 9.994 0 15.707-12.73 28.441-28.436 28.446l-128.693 0 182.073 455.094h203.545l-178.939-298.242c-2.55-4.179-4.060-9.235-4.060-14.643 0-15.705 12.731-28.436 28.436-28.436 0.005 0 0.011 0 0.016 0l178.908-0z"  horiz-adv-x="1024" />

    
    <glyph glyph-name="web-icon-" unicode="&#59112;" d="M550.624 761.728a23.424 23.424 0 0 1-36.192 0L231.936 438.88c-9.952-11.392-5.728-20.704 9.376-20.704h127.136c15.104 0 27.488-12.384 27.488-27.488v-211.808c0-15.104 12.384-27.488 27.488-27.488h218.176a27.584 27.584 0 0 1 27.488 27.488v211.808c0 15.104 12.384 27.488 27.488 27.488h127.136c15.104 0 19.36 9.312 9.376 20.704L550.624 761.728M213.824 61.28c0 15.104 12.384 27.488 27.488 27.488h582.432c15.104 0 27.488-12.384 27.488-27.488v-36.064a27.584 27.584 0 0 0-27.488-27.488H241.312a27.584 27.584 0 0 0-27.488 27.488v36.064m6.016 25.792z"  horiz-adv-x="1024" />

    
    <glyph glyph-name="paiqiu" unicode="&#60020;" d="M519.744 513.28c19.712-7.872 64.384-25.216 124.544-45.184 1.792 60.672-15.936 145.472-50.88 241.92C562.112 796.416 524.224 870.144 503.488 896c-48.192-0.768-95.296-8.128-140.736-22.016C388.928 827.2 464.704 684.8 519.744 513.28z m388.48-358.784c-38.592 0-80.128 4.16-124.352 12.48-62.208 11.712-130.048 31.744-201.472 59.392-121.152 46.912-210.048 99.136-213.824 101.312-0.832 0.576-1.728 1.152-2.496 1.728-32.64-34.496-70.464-76.608-108.608-123.712 11.712-11.52 70.208-66.88 162.56-117.632 94.4-51.904 244.864-109.568 425.472-89.664 1.152 0.128 2.24 0.192 3.328 0.128 8.576 7.552 17.024 15.36 25.152 23.488 40.192 40.192 72.96 86.08 97.728 136.576-20.096-2.688-41.28-4.096-63.488-4.096zM655.616 408.832c-72.448 23.232-126.976 44.16-152.128 54.208-17.92-15.872-54.656-49.28-99.776-94.72 24.704-13.888 101.824-55.744 198.4-93.12 152.704-59.008 284.608-80.192 381.44-61.248 3.904 0.768 7.744 0.64 11.328-0.256 12.736 35.968 21.248 73.088 25.664 110.976-137.408 16.96-274.112 55.04-364.928 84.16z m230.656-7.744c44.928-9.664 91.328-17.92 137.664-23.744 0.064 2.24 0.064 4.48 0.064 6.72 0 69.12-13.568 136.192-40.256 199.296-25.792 60.992-62.72 115.712-109.696 162.752a512.934 512.934 0 0 1-61.824 52.736c36.288-73.536 76.928-200.512 74.048-397.76zM337.408 375.68c59.136 61.696 108.096 106.304 130.624 126.272-14.4 44.544-30.4 87.168-46.464 126.528-25.792-11.328-75.2-36.48-132.16-82.752-75.2-61.12-178.944-172.416-250.496-357.696l1.344-3.264c16.128-38.08 36.544-73.728 61.056-106.56C174.848 196.8 268.992 304.256 337.408 375.68z m255.296-411.968c-68.096 16.896-135.296 43.52-199.68 79.104-89.728 49.6-148.416 102.208-168.256 121.216-30.848-40.512-60.992-83.84-87.808-128.512 4.288-4.544 8.576-9.088 12.992-13.504 47.04-47.04 101.76-83.904 162.752-109.696 63.104-26.688 130.176-40.256 199.296-40.256s136.128 13.568 199.296 40.256c20.224 8.576 39.808 18.368 58.624 29.376-59.328 0.128-118.656 7.488-177.216 22.016z m50.24 764.224c23.296-64.256 60.48-184.192 53.184-276.48 41.728-12.928 88.384-26.176 137.664-38.208 0.896 163.392-30.016 272.128-56.448 335.104-27.968 66.56-56.128 95.36-56.384 95.68-3.072 3.072-5.248 6.656-6.528 10.496-1.024 0.448-2.112 0.896-3.136 1.344C665.472 875.2 617.6 887.616 568.384 892.992c24.064-41.28 51.584-101.696 74.56-165.056zM115.328 438.272c42.368 57.216 90.496 107.712 143.168 150.208 60.992 49.152 113.728 76.032 142.528 88.576-39.552 90.304-76.16 156.992-88.448 178.688-60.928-25.792-115.584-62.656-162.56-109.632-47.04-47.04-83.904-101.76-109.696-162.752C13.568 520.256 0 453.184 0 384.064c0-40.64 4.672-80.576 13.952-119.424 28.672 63.04 62.592 121.216 101.376 173.632z m0 0"  horiz-adv-x="1024" />

    
    <glyph glyph-name="baoming1" unicode="&#58946;" d="M346.4 446.1H222.1V570.3h-82.8v-124.2H15.1v-82.8h124.2v-124.2h82.8V363.29999999999995h124.2v82.8z m414-41.4c68.7 0 123.8 55.5 123.8 124.2s-55.1 124.2-123.8 124.2c-13.3 0-26.1-2.1-37.7-5.8 23.6-33.5 37.3-74.1 37.3-118.4s-14.1-84.5-37.3-118.4c11.7-3.7 24.5-5.8 37.7-5.8z m-207 0c68.7 0 123.8 55.5 123.8 124.2s-55.1 124.2-123.8 124.2-124.2-55.5-124.2-124.2 55.5-124.2 124.2-124.2z m274.1-89.4c34.4-30.2 57.1-68.7 57.1-117.6v-82.8h124.2v82.8c0.1 63.7-98 103.1-181.3 117.6z m-274.1 6.6c-82.8 0-248.4-41.4-248.4-124.2v-82.8h496.9v82.8c0 82.8-165.7 124.2-248.5 124.2z"  horiz-adv-x="1024" />

    
    <glyph glyph-name="icon-" unicode="&#58949;" d="M868.7616 650.24a20.48 20.48 0 0 0 0-28.8768l-57.9584-57.9584a20.48 20.48 0 0 0-28.8768 28.8768L839.68 650.24a20.48 20.48 0 0 0 29.0816 0zM983.04 375.1936a20.48 20.48 0 0 0-20.48-20.48h-81.92a20.48 20.48 0 1 0 0 40.96h81.92a20.48 20.48 0 0 0 20.48-20.48zM376.4224 593.5104a20.48 20.48 0 0 0-28.8768 0l-57.9584 57.9584a20.48 20.48 0 0 0 28.8768 28.8768l57.9584-57.9584a20.48 20.48 0 0 0 0-28.8768zM593.92 762.88a20.48 20.48 0 0 0 20.48-20.48v-81.92a20.48 20.48 0 1 0-40.96 0v81.92a20.48 20.48 0 0 0 20.48 20.48zM81.92 46.08H61.44a20.48 20.48 0 0 1 0-40.96h20.48zM921.6 46.08H122.88v-40.96h798.72a20.48 20.48 0 0 1 0 40.96zM327.68 435.2a245.76 245.76 0 0 0 245.76-226.304c7.168 0 14.1312 1.024 20.48 1.024h20.48a286.72 286.72 0 1 1-565.248-81.92 309.8624 309.8624 0 0 0 32.768 0h8.192a245.76 245.76 0 0 0 237.568 307.2zM593.92 209.92c7.5776 0 14.9504 0 22.528-1.2288a102.4 102.4 0 1 0 193.3312-61.44c9.8304 0 20.48 1.4336 29.9008 1.4336h14.336a143.36 143.36 0 1 1-278.9376 61.44c6.9632-0.8192 13.1072-0.2048 18.8416-0.2048zM327.68 435.2a245.76 245.76 0 0 0 245.76-226.304c7.168 0 14.1312 1.024 20.48 1.024h20.48a286.72 286.72 0 1 1-565.248-81.92 309.8624 309.8624 0 0 0 32.768 0h8.192a245.76 245.76 0 0 0 237.568 307.2zM737.28 373.76a143.36 143.36 0 0 0-6.144-40.96 143.36 143.36 0 0 0 39.7312-9.8304 184.32 184.32 0 0 1-350.8224 112.0256 255.1808 255.1808 0 0 0 36.6592-20.48A143.36 143.36 0 0 0 737.28 373.76z"  horiz-adv-x="1024" />

    
    <glyph glyph-name="zubiejibiaoqianshezhi" unicode="&#59060;" d="M725.1906575520835 632.53271484375h-419.0625v-55.86064453125h419.0625v55.86064453125zM166.47786458333334 828.0990234375V-66h0.78662109375l334.430859375 334.48623046875L836.1806966145833-66h0.8437499999999999V828.0990234375H166.47610677083335z m614.5743164062501-502.91015625v-251.48232421874997L529.6805989583333 325.18974609375005h-55.916015625L222.28138020833333 73.70654296875V772.1830078124999h558.713671875v-446.994140625zM725.1897786458333 492.826171875h-419.0625v-55.859765624999994h419.0625V492.826171875z"  horiz-adv-x="1024" />

    
    <glyph glyph-name="shebei" unicode="&#58880;" d="M928 352.2h-95.8c-17.6 0-32-14.4-32-32v-255.9c0-17.6 14.4-32 32-32H928c17.6 0 32 14.4 32 32V320.2c0 17.6-14.4 32-32 32zM871.8 55c0 5.8 4.7 10.5 10.5 10.5s10.5-4.7 10.5-10.5-4.7-10.5-10.5-10.5-10.5 4.7-10.5 10.5z m77.8 25.7h-139V308.6h139v-227.9zM800.7 447.8a32.2 32.1 0 1 1 64.4 0 32.2 32.1 0 1 1-64.4 0ZM800.7 578.6v-2.4c0-17.7 14.4-32.1 32.2-32.1s32.2 14.4 32.2 32.1c0 0.8 0 1.6-0.1 2.4h0.1V704.7c0 35.2-28.8 64-64 64H128.3c-35.2 0-64-28.8-64-64V256c0-35.2 28.8-64 64-64h302.1v-127.7h-155c-17.6 0-32-14.4-32-32s14.4-32 32-32H657c17.5 0 31.9 14.4 32 32 0 17.6-14.4 32-32 32H498V192h206.7v0.1c17.7 0.2 31.9 14.4 31.9 32.1 0 17.6-14.3 31.9-31.9 32.1H160.8c-17.6 0-32 14.4-32 32V672.2c0 17.6 14.4 32 32 32h607.9c17.6 0 32-14.4 32-32v-93.6z"  horiz-adv-x="1024" />

    
    <glyph glyph-name="icon-humidity" unicode="&#58895;" d="M502.087111 746.609778a2819.456 2819.456 0 0 1-114.944-152.064c-29.681778-42.325333-56.32-83.285333-79.132444-122.168889-54.215111-92.387556-84.124444-168.604444-84.124445-220.103111 0-173.824 137.088-314.396444 305.777778-314.396445 168.675556 0 305.777778 140.572444 305.777778 314.396445 0 51.484444-29.909333 127.715556-84.124445 220.103111-22.812444 38.883556-49.450667 79.843556-79.132444 122.168889a2819.456 2819.456 0 0 1-114.944 152.064 2847.345778 2847.345778 0 0 1-27.591111 33.607111c-8.604444-10.325333-17.834667-21.560889-27.562667-33.607111zM158.876444 252.273778c0 66.204444 33.408 151.338667 93.056 253.013333 23.765333 40.504889 51.342222 82.915556 81.976889 126.577778a2883.413333 2883.413333 0 0 0 117.617778 155.619555 2798.250667 2798.250667 0 0 0 49.692445 59.790223l3.982222 4.579555 24.462222 27.960889 24.462222-27.960889 3.982222-4.579555c3.143111-3.683556 6.812444-7.964444 10.922667-12.828445 11.704889-13.852444 24.746667-29.610667 38.769778-46.961778a2883.413333 2883.413333 0 0 0 117.617778-155.619555c30.634667-43.662222 58.197333-86.072889 81.976889-126.577778 59.648-101.674667 93.056-186.808889 93.056-253.013333 0-209.365333-165.831111-379.420444-370.787556-379.420445-204.970667 0-370.787556 170.055111-370.787556 379.420445zM529.664-14.193778c-142.876444 0-258.688 116.224-258.688 259.598222 0 143.36 134.442667 70.769778 258.688 0 124.757333-71.068444 258.688 143.36 258.688 0 0-143.374222-115.825778-259.598222-258.702222-259.598222zM724.920889 715.178667c0 23.651556 15.658667 51.754667 41.813333 84.110222a512.213333 512.213333 0 0 0 39.594667 43.434667l11.235555 10.766222 11.249778-10.766222 3.527111-3.456A512.199111 512.199111 0 0 0 868.408889 799.288889a315.690667 315.690667 0 0 0 23.438222-32.668445C903.608889 747.52 910.222222 730.481778 910.222222 715.178667c0-51.584-41.443556-93.468444-92.643555-93.468445s-92.657778 41.884444-92.657778 93.468445z m67.100444 63.672889c-21.589333-26.695111-34.588444-50.033778-34.588444-63.672889 0-33.706667 26.965333-60.956444 60.145778-60.956445 33.166222 0 60.131556 27.249778 60.131555 60.956445 0 7.950222-4.664889 19.982222-13.553778 34.432a284.174222 284.174222 0 0 1-21.020444 29.240889 480.213333 480.213333 0 0 1-25.400889 28.828444 392.647111 392.647111 0 0 1-25.713778-28.828444zM113.777778 566.940444c0 17.692444 11.064889 37.546667 29.582222 60.458667a353.422222 353.422222 0 0 0 27.377778 30.023111l11.235555 10.780445 11.249778-10.780445a353.422222 353.422222 0 0 0 27.363556-30.008889c6.300444-7.793778 11.804444-15.402667 16.327111-22.755555 8.462222-13.752889 13.269333-26.140444 13.269333-37.717334 0-37.930667-30.492444-68.750222-68.195555-68.750222-37.717333 0-68.209778 30.819556-68.209778 68.750222z m54.869333 40.021334c-13.937778-17.251556-22.357333-32.341333-22.357333-40.021334 0-20.053333 16.014222-36.252444 35.697778-36.252444 19.669333 0 35.697778 16.199111 35.697777 36.252444 0 4.224-2.887111 11.619556-8.462222 20.693334a188.202667 188.202667 0 0 1-13.909333 19.342222 312.462222 312.462222 0 0 1-13.340445 15.374222 312.462222 312.462222 0 0 1-13.326222-15.388444z"  horiz-adv-x="1024" />

    
    <glyph glyph-name="tianjia1" unicode="&#58984;" d="M512 896C229.2224 896 0 666.7776 0 384s229.2224-512 512-512 512 229.2224 512 512S794.7776 896 512 896z m202.973867-546.133333H580.266667a34.133333 34.133333 0 0 1-34.133334-34.133334v-134.7072c0-16.9984-11.6224-32.768-28.398933-35.498666A34.1504 34.1504 0 0 0 477.866667 179.2v136.533333a34.133333 34.133333 0 0 1-34.133334 34.133334h-134.7072c-16.9984 0-32.768 11.6224-35.498666 28.398933A34.1504 34.1504 0 0 0 307.2 418.133333h136.533333a34.133333 34.133333 0 0 1 34.133334 34.133334v134.7072c0 16.9984 11.6224 32.768 28.398933 35.498666A34.184533 34.184533 0 0 0 546.133333 588.8v-136.533333a34.133333 34.133333 0 0 1 34.133334-34.133334h136.533333a34.1504 34.1504 0 0 0 33.672533-39.867733c-2.747733-16.7936-18.500267-28.398933-35.498666-28.398933z"  horiz-adv-x="1024" />

    
    <glyph glyph-name="shengya" unicode="&#58893;" d="M947.1 666.2c0 6.1-2 11.2-5.9 15.1-4 4-9.1 6-15.3 6H820.6v19.2c0 19.5-0.7 41-2.1 65.5v0.2c-0.8 5.5-3.2 10.1-7 13.8-3.9 3.9-8.7 5.9-14.2 5.9H216.7c-3.1 0-5.9-0.6-8.4-1.8a28.6 28.6 0 0 1-6.2-3.9c-2-1.6-3.6-3.8-4.9-6.7-1.2-2.8-1.7-5.3-1.7-7.7 0-5.3-0.2-10-0.5-14.4s-0.6-8.7-1-13.4c-0.4-4.5-0.5-8.7-0.5-12.7v-44.1H90.1c-6.2 0-11.3-2-15.2-6-3.9-3.8-5.9-8.9-5.9-15.2-2.7-48.4 2.2-95.3 14.6-139.2 12.5-44 34.8-83.8 66.4-118.2 31.6-34.3 70.8-56 116.7-64.5 1.6-0.7 3.3-1.1 4.9-1.1l5.3 1c7.4-13.4 15.6-26.5 24.3-38.8 8.8-12.3 17.7-23.8 26.6-34.4 9-10.7 18.5-20.4 28.3-28.8 18.8-17.4 38.3-31.2 58.1-41.3 20-10.2 41-17.1 62.4-20.5l9.4-1.7v-157.2H344.2c-3.1 0-5.9-0.6-8.4-1.8-2.3-1.2-4.5-2.8-6.3-4.6-2-1.9-3.6-4.3-4.7-7-1.2-2.8-1.7-5.4-1.7-7.7 0-3.9 1-7.5 2.9-10.7 1.9-3 4.2-5.5 6.9-7.4 2.8-2 6-3.3 9.8-4.1H669.8c5.5 0 10.5 2.2 14.7 6.4 4.3 4.2 6.5 9.3 6.5 15.2 0 5.9-2.2 11-6.4 15.2-4.2 4.3-9.2 6.5-14.7 6.5H528.1V178.7l9.3 1.7c43.2 7 83.7 27.8 120.5 61.7 4.9 4.2 9.8 8.8 14.7 13.6 4.8 4.8 9.8 10.1 14.6 15.7l12.5 16.7c4.8 5.5 9.2 11.3 13.6 17.8 4.6 6.9 9.1 13.9 12.5 19.2 4 6.2 7.7 12.8 11.4 20.1h0.3c2.3-1.4 4.5-2.1 6.9-2.1h0.3l4.4 1.1c46 8.4 85.4 30.1 116.9 64.5 31.6 34.4 54 74.1 66.4 118.2 12.6 44 17.5 90.8 14.7 139.3z m-744.5-248c-16.9 13.5-32.6 30.7-46.7 51.3-13.9 20.4-25.1 46.1-33.4 76.5-8.2 30.4-12 63.7-11.3 99h84.2c6.9-93 26.6-178.4 58.6-253.9-17.6 4.7-34.9 13.8-51.4 27.1z m530.7 22.3c-9.9-25.5-20.8-50-32.5-72.8-12.4-22.7-25.9-43-40.2-60.3-14.3-17.4-29.9-32.8-46.3-45.7-11.8-9-23.5-16.4-34.8-22.1-11.7-5.8-23.7-10.3-35.8-13.3-12.2-3-24.5-4.6-36.7-4.6-37.3 0-73.5 13.4-107.3 39.9-15.8 13-31 28.4-45.3 45.7-14.4 17.5-28.3 37.8-41.2 60.3-23.9 45-43 96.8-56.8 153.9-14.4 59.1-21.7 121.4-21.7 185 0 9.6 0.3 20 1 31v11.1h542.6v-11c0-2.4 0.2-4.5 0.5-6.2 0.3-1.7 0.5-3.1 0.5-4.2v-20.7c0-63.1-7.3-125.4-21.7-185.1-6.2-27.9-14.3-55.2-24.3-80.9z m150.4 77.2c-14.7-37.5-33.1-66.9-54.9-87.2-21.4-20.1-44.7-33.7-69.4-40.6 21.2 49.3 37.2 104 47.6 162.4l1.2 2.3v0.6c0 1.4 0.1 3 0.4 4.8 0.3 2.1 0.5 3.4 0.6 4.3 2 9.9 3.7 20.4 5.2 32.1 1.4 10.8 2.4 22 3.1 33.2l1.1 8.2V645h86.2c0.6-47.1-6.5-89.9-21.1-127.3z m0 0"  horiz-adv-x="1024" />

    
    <glyph glyph-name="yulan1" unicode="&#58881;" d="M642.844 213.333l39.823 39.823L910.222 25.6 870.4-14.222 642.844 213.333z m210.49 568.89h56.888v-568.89h-56.889v568.89z m-682.667 0h682.666v-56.89H170.667v56.89z m0-739.556h512v-56.89h-568.89V782.223h56.89v-739.555zM512 156.444c-125.156 0-227.556 102.4-227.556 227.556S386.844 611.556 512 611.556 739.556 509.156 739.556 384 637.156 156.444 512 156.444z m0 56.89c96.711 0 170.667 73.955 170.667 170.666S608.71 554.667 512 554.667 341.333 480.71 341.333 384 415.29 213.333 512 213.333z"  horiz-adv-x="1024" />

    
    <glyph glyph-name="tuichu" unicode="&#58898;" d="M805.531751 747.571256a505.157571 505.157571 0 0 0 160.079864-172.436853 451.092617 451.092617 0 0 0 58.36695-221.244812 441.125625 441.125625 0 0 0-40.617965-187.659841 490.685583 490.685583 0 0 0-109.564907-152.77587 527.753552 527.753552 0 0 0-361.801693-141.44388 518.810559 518.810559 0 0 0-198.513831 38.159968 532.463548 532.463548 0 0 0-163.287862 103.283912A478.602593 478.602593 0 0 0 40.080401 166.16175 446.245621 446.245621 0 0 0 0.009435 353.889591a441.671625 441.671625 0 0 0 14.335988 112.021904A478.193594 478.193594 0 0 0 54.620389 570.083407a459.01061 459.01061 0 0 0 65.533944 92.497921 542.225539 542.225539 0 0 0 86.969926 77.411935 74.134937 74.134937 0 0 0 54.609954 12.901989A72.769938 72.769938 0 0 0 309.522172 725.999274a61.437948 61.437948 0 0 0 13.652988-50.583957 67.239943 67.239943 0 0 0-28.602975-45.190961 340.503711 340.503711 0 0 1-110.929906-121.442897 324.870724 324.870724 0 0 1-38.295967-154.891868 319.682728 319.682728 0 0 1 28.602975-133.729887 345.077707 345.077707 0 0 1 78.639933-109.906906 377.707679 377.707679 0 0 1 116.049902-74.407937 383.714674 383.714674 0 0 1 284.868758 0 377.639679 377.639679 0 0 1 116.731901 74.203937 352.5177 352.5177 0 0 1 79.254932 110.109906 314.494733 314.494733 0 0 1 29.149975 133.935886 323.846725 323.846725 0 0 1-40.959965 158.646866 342.892709 342.892709 0 0 1-115.571902 122.875895 65.943944 65.943944 0 0 0-18.293984 95.569919 70.78994 70.78994 0 0 0 46.89696 27.305977 75.978935 75.978935 0 0 0 54.611954-11.262991z m-294.083751-396.889663a71.677939 71.677939 0 0 0-50.925956 19.659984 63.349946 63.349946 0 0 0-21.161982 47.784959V827.167188A65.055945 65.055945 0 0 0 460.522044 875.499147 70.65394 70.65394 0 0 0 511.448 895.97913a72.086939 72.086939 0 0 0 52.085956-20.479983 65.055945 65.055945 0 0 0 21.161982-48.399958v-408.972653a63.349946 63.349946 0 0 0-21.161982-47.784959 73.110938 73.110938 0 0 0-52.085956-19.864984z"  horiz-adv-x="1024" />

    
    <glyph glyph-name="mima" unicode="&#58899;" d="M522.437 334.966c-46.67 0-84.677-37.81-84.677-84.677 0-33.674 19.89-62.424 48.246-76.012v-92.948c0-20.086 16.345-36.234 36.234-36.234 20.086 0 36.234 16.345 36.234 36.234v92.948c28.554 13.588 48.246 42.338 48.246 76.012 0.197 46.868-37.612 84.677-84.283 84.677z m350.326 169.157H147.89c-39.975 0-72.467-32.492-72.467-72.468v-483.249c0-39.975 32.492-72.468 72.467-72.468h724.874c39.975 0 72.468 32.493 72.468 72.468v483.25c0 40.172-32.493 72.467-72.468 72.467z m0-507.274c0-39.975-8.27-48.246-48.246-48.246H196.332c-39.975 0-48.246 8.27-48.246 48.246V383.41c0 39.976 8.27 48.246 48.246 48.246h628.185c39.975 0 48.246-8.27 48.246-48.246v-386.56zM167.778 540.554c20.087 0 36.431 15.95 37.022 36.037C237.49 715.028 361.748 818.215 510.228 818.215c115.987 0 217.009-63.212 271.36-156.75 5.71-12.8 18.51-21.662 33.28-21.662 20.086 0 36.43 16.345 36.43 36.43 0 7.878-2.56 15.164-6.695 21.072C777.846 812.702 653.391 890.88 510.228 890.88c-187.077 0-342.646-128.394-378.683-304.64-0.197-0.788-0.394-1.378-0.394-2.166-0.197-0.788-0.394-1.772-0.591-2.56h0.197c-0.197-1.182-0.197-2.363-0.197-3.545 0.197-20.677 16.738-37.415 37.218-37.415z"  horiz-adv-x="1024" />

    
    <glyph glyph-name="wanshanxinxi" unicode="&#58961;" d="M0.17824 386.237952c0 116.066725-0.189193 232.139625 0.055579 348.212526C0.451082 835.025284 63.479809 895.313241 170.662891 895.578223 397.963783 896.162083 625.270289 896.105381 852.576234 895.61696c105.956978-0.229052 171.069633-62.06143 171.253773-161.264166 0.250386-136.861096 0.111719-273.717701-0.056702-410.578798-0.010105-8.556345 1.538245-19.540758-3.30105-25.108754-7.884345-9.072274-21.442792-21.178932-30.757592-19.935424-11.196624 1.497824-22.08223 14.545955-29.883488 24.734298-4.001681 5.235645-1.141333 15.138235-1.141332 22.92658-0.026947 135.99822 0.027509 271.991387-0.044351 407.985115-0.032 66.853005-37.852043 102.145051-110.129326 102.192209-225.444893 0.140351-450.890909 0.162245-676.344223-0.014597-69.40346-0.057825-107.044416-35.064677-107.071363-99.266737a681658.914397 681658.914397 0 0 1 0-704.227993c0.032-66.214129 36.999272-100.280631 108.414239-100.358104 93.702109-0.098246 187.405903 0.037053 281.114749-0.061193 30.173172-0.037053 46.057511-10.777256 45.701581-30.318014-0.350316-18.999566-16.972339-30.015979-46.721089-30.062575-95.562038-0.145403-191.12576-0.544561-286.682745 0.089263C68.086122-126.99733400000002 1.30273-65.15653599999996 0.523503 27.62880199999995-0.483654 147.15769999999998 0.27817 266.698388 0.27817 386.237952c-0.039298 0.005614-0.065684 0.005614-0.09993 0.005614v-0.005614z m741.102072-438.889795c13.625254 13.292341 27.500331 26.927139 41.491059 40.459761 59.29259 57.338345 118.485811 114.783357 178.0344 171.905001 19.600828 18.803636 38.776113 20.918441 52.940313 5.936277 16.592269-17.561251 8.981888-33.191836-6.202943-47.842773-79.392505-76.563595-158.548098-153.34726-238.074217-229.783417-20.763494-19.956758-34.844607-20.378933-57.566275-2.136139-28.84826 23.153949-56.966697 47.088247-85.635308 70.445424-17.149181 13.975008-23.829878 30.130505-7.065258 47.039967 15.590164 15.717042 33.676327 11.339781 49.465228-1.387227 22.445458-18.091215 44.354776-36.759553 66.442058-55.146628 4.266664-1.727999 2.920419-3.164068 6.170943 0.509754z m-229.422995 652.64796c-68.50353 0-136.999201-0.145965-205.503855 0.067368-30.367417 0.093754-45.506213 10.770519-43.924741 31.389171 1.932911 25.218228 20.795494 29.169383 43.374004 29.133453 136.999201-0.234667 273.999526-0.062316 411.004341-0.15607 29.465804-0.020772 46.914212-11.613185 44.615267-30.97261-2.845752-23.938229-21.23002-29.658365-44.058916-29.563488-68.502408 0.289684-137.004815 0.10386-205.506662 0.10386v-0.002246z m-1.826806-241.622286c-68.630408 0.005614-137.259692-0.166175-205.891784 0.089264-29.119979 0.108351-42.968671 10.188905-41.791971 30.244469 1.40856 24.063422 19.069741 28.835909 40.762357 28.820752 139.11513-0.10386 278.235873-0.176842 417.347074 0.089263 22.410089 0.041544 38.858078-6.659925 41.085164-29.272681 1.827367-18.564478-14.749183-29.793102-42.833935-29.891347-69.556161-0.239158-139.110077-0.077474-208.676905-0.077474v-0.002246z m-130.574504-242.942144c-26.805314 0.005614-53.608383 0-80.417628 0.005615-21.559002 0.005614-36.319974 8.295854-36.514219 29.928399-0.19593 22.036195 15.811357 30.089523 36.55857 30.282084 54.526839 0.509754 109.071642 0.421052 163.601849 0.050527 21.198581-0.138105 37.144114-9.709467 37.01836-30.43647-0.129123-20.482231-15.118024-30.026645-37.060465-29.875067-27.72377 0.186947-55.457084 0.040421-83.185344 0.046035l-0.001123-0.001123z"  horiz-adv-x="1024" />

    
    <glyph glyph-name="wanshanxinxi-" unicode="&#58907;" d="M838.376144 410.166552a324.656296 324.656296 0 0 1-63.880153 166.583434 325.503963 325.503963 0 1 1 51.300781-289.5629 317.162924 317.162924 0 0 1 10.171999 44.824608 324.012069 324.012069 0 0 1 3.729733 49.334194c-0.033907 9.697306-0.474693 19.326798-1.32236 28.820664z m-182.010966 158.378021h108.501321a310.415498 310.415498 0 0 0 26.684543-42.145982h-135.185864a21.157758 21.157758 0 0 0 0 42.281609z m-247.247385 6.781333a109.213361 109.213361 0 0 0 57.268353 23.734664 110.400094 110.400094 0 1 0-57.268353-23.734664zM669.826123 200.894629c-0.576413-10.477159-6.577893-17.902718-15.563158-23.192157a87.411377 87.411377 0 0 0-29.702237-9.832933c-24.751864-4.407866-49.808888-4.611306-74.832004-4.780839-24.073731-0.20344-48.147461 0-72.221192 0-25.70125 0-51.436407-0.237347-77.103751 0-16.309105 0.20344-32.652116 0.81376-48.859501 1.966586A134.202571 134.202571 0 0 0 308.550631 174.277899a36.314036 36.314036 0 0 0-18.546944 15.224091 30.719436 30.719436 0 0 0-3.390667 14.240799 140.475304 140.475304 0 0 0 17.800998 76.391711 145.59521 145.59521 0 0 0 77.171565 65.338139 152.579982 152.579982 0 0 0 54.25066 9.493866h85.682137a149.189316 149.189316 0 0 0 99.821215-36.619196 138.746064 138.746064 0 0 0 46.621662-82.054124 149.731823 149.731823 0 0 0 1.864866-35.398556z m143.425184 94.362242h-106.026135c-9.561679 0-17.258491 9.459959-17.258491 21.157758s7.730719 21.123851 17.258491 21.123851h115.587813a297.497059 297.497059 0 0 0-9.561678-42.145982z m-154.410943 116.0286a22.073237 22.073237 0 0 0-23.05653 21.123851c0 11.629985 10.375439 21.123851 23.05653 21.123851h159.598662a303.837605 303.837605 0 0 0 6.781333-42.247702zM511.990608-128C225.275867-128-7.154306 108.905853 0.169533 397.248113 7.222119 675.384468 238.262119 898.354682 516.500194 895.981216a508.294782 508.294782 0 0 0 277.186968-84.359777 16.512545 16.512545 0 0 0 4.340053-23.327784A16.478638 16.478638 0 0 0 775.445378 784.089229a479.033332 479.033332 0 0 1-742.555915-400.098621c0-264.098996 214.866522-478.965518 478.965518-478.965518s479.101145 214.866522 479.101145 478.965518A473.438732 473.438732 0 0 1 945.995891 586.684638a16.580358 16.580358 0 0 0 7.425559 21.801984 16.546451 16.546451 0 0 0 22.446211-7.662906A506.192569 506.192569 0 0 0 1023.981216 383.990608c0-282.306874-229.683734-511.990608-511.990608-511.990608zM927.00816 672.638028m-18.648664 0a18.648665 18.648665 0 1 1 37.297329 0 18.648665 18.648665 0 1 1-37.297329 0Z"  horiz-adv-x="1024" />

    
    <glyph glyph-name="mobanguanli" unicode="&#58917;" d="M128 768l352 0 0-256-352 0 0 256ZM128 448l352 0 0-448-352 0 0 448ZM544 256l352 0 0-256-352 0 0 256ZM544 768l352 0 0-448-352 0 0 448Z"  horiz-adv-x="1024" />

    
    <glyph glyph-name="shanchu" unicode="&#58943;" d="M180.7 606.9v61c0 18.4 14.9 33.2 33.2 33.2h190.6v33.2c0 18.4 14.9 33.2 33.2 33.2h150.7c18.4 0 33.2-14.9 33.2-33.2v-33.2h190.6c18.4 0 33.2-14.9 33.2-33.2v-61H180.7zM752.6 35c0-18.4-14.9-33.2-33.2-33.2H307c-18.4 0-33.2 14.9-33.2 33.2l-66.5 548.6h611.8L752.6 35zM420.1 457.3c0 18.4-14.9 33.2-33.2 33.2-18.4 0-33.2-14.9-33.2-33.2v-332.5c0-18.4 14.9-33.2 33.2-33.2 18.4 0 33.2 14.9 33.2 33.2V457.3z m124.1 0c0 18.4-14.9 33.2-33.2 33.2-18.4 0-33.2-14.9-33.2-33.2v-332.5c0-18.4 14.9-33.2 33.2-33.2 18.4 0 33.2 14.9 33.2 33.2V457.3z m126.4 0c0 18.4-14.9 33.2-33.2 33.2-18.4 0-33.2-14.9-33.2-33.2v-332.5c0-18.4 14.9-33.2 33.2-33.2 18.4 0 33.2 14.9 33.2 33.2V457.3z"  horiz-adv-x="1024" />

    
    <glyph glyph-name="xinxibianji" unicode="&#58996;" d="M262 640.2h244c3.3 0 6 2.7 6 6v52c0 3.3-2.7 6-6 6H262c-3.3 0-6-2.7-6-6v-52c0-3.3 2.7-6 6-6zM256 518c0-3.3 2.7-6 6-6h244c3.3 0 6 2.7 6 6v52c0 3.3-2.7 6-6 6H262c-3.3 0-6-2.7-6-6v-52zM640.1 389.8v52c0 3.3-2.7 6-6 6h-372c-3.3 0-6-2.7-6-6v-52c0-3.3 2.7-6 6-6h372c3.3 0 6 2.7 6 6zM511.1 314c0 3.3-2.7 6-6 6h-243c-3.3 0-6-2.7-6-6v-52c0-3.3 2.7-6 6-6h243c3.3 0 6 2.7 6 6v52zM262.1 128.1h243c3.3 0 6 2.7 6 6v52c0 3.3-2.7 6-6 6h-243c-3.3 0-6-2.7-6-6v-52c0-3.3 2.6-6 6-6zM1015.5 397.8L896.7 516.6c-4.7 4.7-12.3 4.7-17 0L573.2 210c-0.9-0.9-1.5-2.1-1.7-3.4l-19.2-135.1c-0.5-3.7 2.5-7 6.3-6.8l146.6 8c1.5 0.1 2.9 0.7 3.9 1.7l306.4 306.4c4.7 4.7 4.7 12.3 0 17z m-86.2-12.7L711.8 167.6c-2.3-2.3-6.1-2.3-8.5 0l-36.8 36.8c-2.3 2.3-2.3 6.1 0 8.5L884 430.3c2.3 2.3 6.1 2.3 8.5 0l36.8-36.8c2.3-2.3 2.3-6.1 0-8.4zM826.2 64.3h-52c-3.3 0-6-2.7-6-6v-52c0-3.3-2.7-6-6-6l-564.2 0.1c-3.3 0-6 2.7-6 6V762.1c0 3.3 2.7 6 6 6h378.1v-186c0-3.3 2.7-6 6-6h180.1c3.3 0 6-2.7 6-6l-0.1-51.8c0-3.3 2.7-6 6-6H826c3.3 0 6 2.7 6 6l-0.8 116.4c0 3.3-2.7 6-6 6h-57v-0.6h-0.2v58c0 3.3-2.7 6-6 6h-58v58c0 3.3-2.7 6-6 6h-58v58c0 3.3-2.7 6-6 6H140c-6.6 0-12-5.4-12-12v-871.6c0-6.6 5.4-12 12-12l680.1-0.2c6.6 0 12 5.4 12 12v110c0.1 3.3-2.6 6-5.9 6z"  horiz-adv-x="1024" />

    
    <glyph glyph-name="chengjiguanli" unicode="&#59006;" d="M857.2 704.2l-52 0.1c-3.3 0-6 2.7-6 6v51.9c0 3.3-2.7 6-6 6h-52c-3.3 0-6 2.7-6 6v52c0 3.3-2.7 6-6 6H165c-3.3 0-6-2.7-6-6v-884.4c0-3.3 2.7-6 6-6h692.1c3.3 0 6 2.7 6 6V698.2c0.1 3.3-2.6 6-5.9 6z m-64-704.5H229c-3.3 0-6 2.7-6 6V762.1c0 3.3 2.7 6 6 6h436.1c3.3 0 6-2.7 6-6v-116c0-3.3 2.7-6 6-6l116-0.1c3.3 0 6-2.7 6-6v-628.3c0.1-3.3-2.6-6-5.9-6zM601.9 138.2L479.4 472.4c-2.1 5.8-7.8 9.8-14 9.8h-35.2c-6.2 0-11.8-3.9-14-9.8L293.7 138.2c-1.7-4.6-1-9.7 1.8-13.7s7.3-6.4 12.2-6.4h45.1c6.4 0 12 4 14.1 10.1l20.2 59h121.5l20.2-59c2.1-6 7.7-10.1 14.1-10.1H588c4.9 0 9.4 2.4 12.2 6.4 2.7 4 3.3 9.1 1.7 13.7z m-153 225.6l38.3-112.1h-77.7l39.4 112.1zM597.1 510.1h-52c-3.3 0-6-2.7-6-6v-52c0-3.3 2.7-6 6-6h52c3.3 0 6-2.7 6-6V388c0-3.3 2.7-6 6-6h52c3.3 0 6 2.7 6 6v52.1c0 3.3 2.7 6 6 6h52c3.3 0 6 2.7 6 6v52c0 3.3-2.7 6-6 6h-52c-3.3 0-6 2.7-6 6V568c0 3.3-2.7 6-6 6h-52c-3.3 0-6-2.7-6-6v-51.9c0-3.3-2.7-6-6-6z"  horiz-adv-x="1024" />

    
    <glyph glyph-name="ziliaoguanli" unicode="&#59017;" d="M768.1 122.2v-51.9c0-3.3-2.7-6-6-6h-116c-3.3 0-6 2.7-6 6v51.9c0 3.3 2.7 6 6 6H698c3.3 0 6 2.7 6 6V314c0 3.3-2.7 6-6 6H518.3c-3.3 0-6-2.7-6-6v-179.8c0-3.3 2.7-6 6-6h51.8c3.3 0 6-2.7 6-6v-51.9c0-3.3-2.7-6-6-6h-116c-3.3 0-6 2.7-6 6v52c0 3.3-2.7 6-6 6H262.2c-3.3 0-6-2.7-6-6v-179.9c0-3.3 2.7-6 6-6h179.9c3.3 0 6 2.7 6 6v51.9c0 3.3 2.7 6 6 6h308.1c3.3 0 6-2.7 6-6v-51.9c0-3.3 2.7-6 6-6h180c3.3 0 6 2.7 6 6V122.2c0 3.3-2.7 6-6 6h-180c-3.4 0-6.1-2.7-6.1-6zM582.3 256H634c3.3 0 6-2.7 6-6v-51.8c0-3.3-2.7-6-6-6h-51.8c-3.3 0-6 2.7-6 6V250c0.1 3.3 2.8 6 6.1 6zM378.1 0.4h-51.9c-3.3 0-6 2.7-6 6v51.9c0 3.3 2.7 6 6 6h51.9c3.3 0 6-2.7 6-6v-51.9c0-3.3-2.7-6-6-6z m512.1 0h-52c-3.3 0-6 2.7-6 6v51.8c0 3.3 2.7 6 6 6h52c3.3 0 6-2.7 6-6v-51.8c0-3.3-2.7-6-6-6zM582.1 512.2c-3.3 0-6 2.7-6 6V570c0 3.3-2.7 6-6 6h-52c-3.3 0-6 2.7-6 6v52c0 3.3-2.7 6-6 6H76c-6.6 0-12-5.4-12-12v-679.4c0-6.6 5.4-12 12-12h109.8c3.3 0 6 2.7 6 6v52c0 3.3-2.7 6-6 6H134c-3.3 0-6 2.7-6 6V570c0 3.3 2.7 6 6 6h308.1c3.3 0 6-2.7 6-6v-116.3c0-3.3 2.7-6 6-6h116c3.3 0 6-2.7 6-6v-51.9c0-3.3 2.7-6 6-6h52c3.3 0 6 2.7 6 6V506.2c0 3.3-2.7 6-6 6h-52zM378.1 447.8H198c-3.3 0-6 2.7-6 6v52.4c0 3.3 2.7 6 6 6h180.1c3.3 0 6-2.7 6-6v-52.4c0-3.3-2.7-6-6-6zM442.1 320H198c-3.3 0-6 2.7-6 6v51.9c0 3.3 2.7 6 6 6h244c3.3 0 6-2.7 6-6V326c0.1-3.4-2.6-6-5.9-6zM442.1 192.1H198c-3.3 0-6 2.7-6 6V250c0 3.3 2.7 6 6 6h244c3.3 0 6-2.7 6-6v-51.9c0.1-3.3-2.6-6-5.9-6zM902.2 704.2c-3.3 0-6 2.7-6 6v52c0 3.3-2.7 6-6 6h-52c-3.3 0-6 2.7-6 6V826c0 3.3-2.7 6-6 6H396.1c-6.6 0-12-5.4-12-12v-109.8c0-3.3 2.7-6 6-6h52c3.3 0 6 2.7 6 6V762c0 3.3 2.7 6 6 6h308.1c3.3 0 6-2.7 6-6v-116.1c0-3.3 2.7-6 6-6h116c3.3 0 6-2.7 6-6v-180.1c0-3.3 2.7-6 6-6h52c3.3 0 6 2.7 6 6V698.2c0 3.3-2.7 6-6 6h-52z"  horiz-adv-x="1024" />

    
    <glyph glyph-name="ziliao" unicode="&#59247;" d="M265.12071 95.344318V652.034057h64.629844v-556.690762h-64.629844v0.001023z m-97.263013 50.345541V601.683399h64.624727v-455.99354h-64.624727z m194.530119 564.71449h493.754487v-652.823024h-493.754487V710.404349z m-16.317608-685.460287h526.390727c9.007123 0 16.318631 7.312531 16.318631 16.318631V726.73526c0 9.008146-7.312531 16.319655-16.318631 16.319655H346.070208c-9.01531 0-16.319655-7.312531-16.319654-16.319655v-42.068034h-80.943359c-9.019403 0-16.331934-7.306392-16.331934-16.319654l0.007163-34.025887h-80.944382c-9.019403 0-16.318631-7.311508-16.318631-16.318631V129.371228c0-9.007123 7.299229-16.307375 16.318631-16.307375h80.944382v-34.03919c0-9.008146 7.305368-16.318631 16.324771-16.318631h80.943359v-21.443339c0-9.007123 7.304345-16.318631 16.319654-16.318631zM441.346988 627.999712h168.762298v-118.4055H441.346988V627.999712z m-16.318631-151.048903h201.400583c9.014286 0 16.318631 7.312531 16.318632 16.312492l0.004093 151.061182c0 9.013263-7.309462 16.324771-16.322725 16.324772H425.028357c-9.008146 0-16.319655-7.312531-16.319655-16.331935v-151.054019c0-9.000983 7.311508-16.312492 16.319655-16.312492zM425.028357 377.398665h368.473406c9.013263 0 16.324771 7.302298 16.324771 16.315561s-7.312531 16.318631-16.324771 16.318632H425.028357c-9.008146 0-16.319655-7.305368-16.319655-16.318632s7.311508-16.326818 16.319655-16.315561zM425.028357 277.839357h368.473406c9.013263 0 16.324771 7.312531 16.324771 16.330911 0 9.008146-7.312531 16.318631-16.324771 16.318632H425.028357c-9.008146 0-16.319655-7.311508-16.319655-16.318632 0-9.019403 7.311508-16.330911 16.319655-16.330911zM425.028357 178.290283h368.473406c9.013263 0 16.324771 7.299229 16.324771 16.318631 0 9.007123-7.312531 16.307375-16.324771 16.307375H425.028357c-9.008146 0-16.319655-7.300252-16.319655-16.307375 0-9.019403 7.311508-16.318631 16.319655-16.318631z"  horiz-adv-x="1024" />

    
    <glyph glyph-name="iconzhengli-" unicode="&#58908;" d="M685.397333 548.522667c-15.018667 28.672-44.373333 46.421333-76.458666 46.421333H415.061333c-32.085333 0-61.44-17.749333-76.458666-46.421333l-36.864-70.314667c-17.066667-33.450667-11.605333-73.728 15.018666-100.352l96.256-98.986667c53.930667-55.296 143.36-55.296 197.973334 0l96.256 98.986667c25.941333 26.624 32.085333 67.584 15.018666 100.352l-36.864 70.314667zM512 50.858667c-5.461333 0-11.605333 2.048-15.701333 6.826666L178.176 381.952c-21.162667 21.162667-25.941333 53.930667-11.605333 79.872l99.669333 191.146667c11.605333 22.528 35.498667 36.864 61.44 36.864h184.32c12.288 0 22.528-10.24 22.528-22.528s-10.24-22.528-22.528-22.528H327.68c-8.874667 0-17.749333-4.778667-21.845333-12.970667L206.165333 442.026667c-4.778667-9.557333-3.413333-21.162667 4.096-28.672l317.44-324.949334c8.874667-8.874667 8.192-23.210667-0.682666-31.402666-4.096-4.096-9.557333-6.144-15.018667-6.144zM512 50.858667c-8.874667 0-17.749333 5.461333-21.162667 15.018666L369.322667 414.72c-1.365333 4.778667-1.365333 9.557333 0 14.336l80.554666 245.76c4.096 11.605333 16.384 17.749333 27.989334 14.336 11.605333-4.096 17.749333-16.384 14.336-27.989333l-78.506667-238.933334 119.466667-342.016c4.096-11.605333-2.048-24.576-13.653334-27.989333-2.730667-1.365333-4.778667-1.365333-7.509333-1.365333zM512 399.701333H201.386667c-12.288 0-22.528 10.24-22.528 22.528s10.24 22.528 22.528 22.528H512c12.288 0 22.528-10.24 22.528-22.528s-10.24-22.528-22.528-22.528zM512 50.858667c-5.461333 0-10.922667 2.048-15.701333 6.144-8.874667 8.874667-8.874667 22.528-0.682667 31.402666l317.44 324.949334c7.509333 7.509333 8.874667 19.114667 4.096 28.672l-99.669333 190.464c-4.096 8.192-12.288 12.970667-21.845334 12.970666H512c-12.288 0-22.528 10.24-22.528 22.528s10.24 22.528 22.528 22.528h184.32c25.941333 0 49.152-14.336 61.44-36.864l99.669333-190.464c13.653333-26.624 8.874667-58.709333-11.605333-79.872l-317.44-324.949333c-4.778667-5.461333-10.922667-7.509333-16.384-7.509333zM512 50.858667c-2.730667 0-4.778667 0.682667-7.509333 1.365333-11.605333 4.096-17.749333 16.384-13.653334 27.989333l119.466667 342.016-78.506667 238.933334c-4.096 11.605333 2.730667 24.576 14.336 27.989333 11.605333 4.096 24.576-2.730667 27.989334-14.336l80.554666-245.76c1.365333-4.778667 1.365333-9.557333 0-14.336l-121.514666-349.525333c-3.413333-8.874667-12.288-14.336-21.162667-14.336zM815.786667 399.701333H512c-12.288 0-22.528 10.24-22.528 22.528s10.24 22.528 22.528 22.528h303.786667c12.288 0 22.528-10.24 22.528-22.528s-10.24-22.528-22.528-22.528z"  horiz-adv-x="1024" />

    
    <glyph glyph-name="wodewodecansai" unicode="&#58900;" d="M1086.128553 799.009312l-162.285033-277.738182a426.595891 426.595891 0 1 0-739.747274-9.846704L5.065267 798.223322a32.946067 32.946067 0 0 0 10.152366 45.194406 32.312908 32.312908 0 0 0 44.779578-10.261532l163.747847-262.302218a431.24633 431.24633 0 0 0 74.625352 73.664698L179.314809 846.321523A32.946067 32.946067 0 0 0 190.602494 891.232099a32.378408 32.378408 0 0 0 44.517581-11.39685l117.701953-199.554043a422.098284 422.098284 0 0 0 394.130151 7.161239l110.322383 192.130808a32.596738 32.596738 0 0 0 19.649742 15.283132 32.225576 32.225576 0 0 0 24.649509-3.340456 32.749569 32.749569 0 0 0 15.086635-19.911738 32.989733 32.989733 0 0 0-3.29679-24.846007l-110.824543-192.916797a430.569506 430.569506 0 0 0 79.952616-74.03586l147.613225 252.630179a32.225576 32.225576 0 0 0 44.452083 11.571514 32.924234 32.924234 0 0 0 11.571514-44.997908zM556.74268 667.203212a364.895702 364.895702 0 1 1 361.686245-364.895703A363.673052 363.673052 0 0 1 556.74268 667.203212z m129.011471-426.181064l19.365912-113.728338a32.902401 32.902401 0 0 0-12.903331-32.029079 32.18191 32.18191 0 0 0-34.168717-2.5108l-101.305335 53.665628-101.174336-53.621962a32.116411 32.116411 0 0 0-34.190551 2.488967 32.749569 32.749569 0 0 0-12.90333 32.007246l19.322246 113.706505-81.852091 80.498442a32.9679 32.9679 0 0 0-8.231058 33.579225 32.487573 32.487573 0 0 0 26.199655 22.269707l113.138846 16.614948 50.587168 103.423141a33.644724 33.644724 0 0 0 58.228735 0l50.630834-103.444974 113.117013-16.614948a32.531239 32.531239 0 0 0 26.199655-22.269707 32.9679 32.9679 0 0 0-8.209225-33.579225z m-75.455008 90.585309a32.487573 32.487573 0 0 0-24.431179 17.903098l-29.059785 59.385886-29.037951-59.385886a32.531239 32.531239 0 0 0-24.453012-17.903098l-64.909647-9.541041 46.984716-46.176893a32.749569 32.749569 0 0 0 9.322711-28.994285l-11.091188-65.237143 58.075903 30.762763a32.029079 32.029079 0 0 0 30.195103 0l58.097736-30.762763-11.11302 65.237143a32.880568 32.880568 0 0 0 9.344544 28.994285l46.962882 46.176893z"  horiz-adv-x="1091" />

    
    <glyph glyph-name="shangsheng" unicode="&#58910;" d="M698.7 415.1v-429.5c0-54.8-44.5-99.3-99.3-99.3H434c-54.8 0-99.3 44.5-99.3 99.3V415.1H70l446.9 463 446.9-463H698.7z m0 0"  horiz-adv-x="1024" />

    
    <glyph glyph-name="xiajiang" unicode="&#58904;" d="M335 349.4V778.9c0 54.8 44.5 99.3 99.3 99.3h165.4c54.8 0 99.3-44.5 99.3-99.3v-429.5h264.7l-446.9-463L70 349.4h265z m0 0"  horiz-adv-x="1024" />

    
    <glyph glyph-name="zhaoming-" unicode="&#58912;" d="M535.8-64h-36.6c-33.1 0-60.1 27-60.1 60.1v15.8c-27.4 15.3-44.7 44.4-44.7 76.2V189.2C307 235 253.1 323.9 253.1 423c0 145.5 118.4 263.9 263.9 263.9 145 0 263.8-118.3 264.9-263.8 0-97.4-55.2-188.3-141.3-233.8v-101.2c0-31.8-17.3-60.9-44.7-76.2v-15.8c0-33.1-27-60.1-60.1-60.1zM517 662.2c-131.9 0-239.2-107.3-239.2-239.2 0-92.2 51.5-174.6 134.3-215.1l6.9-3.4v-116.4c0-24.8 14.7-47.3 37.4-57.3l7.3-3.3v-31.4c0-19.5 15.9-35.4 35.4-35.4h36.6c19.5 0 35.4 15.9 35.4 35.4v31.4l7.3 3.3c22.7 10 37.4 32.5 37.4 57.3V204.5l6.9 3.4C704.5 248 757.2 332.4 757.2 423c-0.9 131.8-108.7 239.2-240.2 239.2zM529.1 749.8h-23.2c-0.4 0-0.8 0.3-0.8 0.8V831.2c0 0.4 0.3 0.8 0.8 0.8h23.2c0.4 0 0.8-0.3 0.8-0.8v-80.7c-0.1-0.4-0.4-0.7-0.8-0.7zM624.377 145.718v-24.7h-213.7v24.7zM529.795 121.068h-24.7v213.7h24.7zM583.206 28.489v-24.7h-131.5v24.7zM296.5 667.6l-16.4-16.4c-0.3-0.3-0.8-0.3-1.1 0l-57 57.1c-0.3 0.3-0.3 0.8 0 1.1l16.4 16.4c0.3 0.3 0.8 0.3 1.1 0l57.1-57.1c0.2-0.3 0.2-0.8-0.1-1.1zM190.1 445v-23.2c0-0.4-0.3-0.8-0.8-0.8h-80.7c-0.4 0-0.8 0.3-0.8 0.8V445c0 0.4 0.3 0.8 0.8 0.8h80.7c0.5 0 0.8-0.4 0.8-0.8zM833.9 410.9V434c0 0.4 0.3 0.8 0.8 0.8h80.7c0.4 0 0.8-0.3 0.8-0.8v-23.2c0-0.4-0.3-0.8-0.8-0.8h-80.7c-0.5 0.1-0.8 0.5-0.8 0.9zM751.7 643.5l-16.4 16.4c-0.3 0.3-0.3 0.8 0 1.1l57.1 57.1c0.3 0.3 0.8 0.3 1.1 0l16.4-16.4c0.3-0.3 0.3-0.8 0-1.1l-57.1-57.1c-0.4-0.3-0.8-0.3-1.1 0zM517.5 305.2c-5.6 0-10.8 3-13.5 7.8l-50.5 87.4c-2.8 4.8-2.8 10.8 0 15.6 2.8 4.8 8 7.8 13.5 7.8h101c5.5 0 10.7-3 13.5-7.8 2.8-4.8 2.8-10.8 0-15.6L531 313c-2.8-4.8-8-7.8-13.5-7.8z m-34.8 94l34.8-60.3 34.8 60.3h-69.6z"  horiz-adv-x="1024" />

    
    <glyph glyph-name="chatou" unicode="&#59023;" d="M796.444634 630.518519H701.629819V858.074074a37.925926 37.925926 0 0 1-75.851852 0v-227.555555H398.222412V858.074074a37.925926 37.925926 0 0 1-75.851852 0v-227.555555H227.555745a94.814815 94.814815 0 0 1-18.962963-189.62963v-75.851852a303.407407 303.407407 0 0 1 113.777778-236.657778V-52.148148a75.851852 75.851852 0 0 1 75.851852-75.851852h227.555555a75.851852 75.851852 0 0 1 75.851852 75.851852v180.527407a273.066667 273.066667 0 0 1 25.031111 21.997037A303.407407 303.407407 0 0 1 815.407597 365.037037v75.851852a94.814815 94.814815 0 0 1-18.962963 189.62963z m0-113.777778h-568.888889a18.962963 18.962963 0 0 0 0 37.925926h568.888889a18.962963 18.962963 0 0 0 0-37.925926zM739.555745 365.037037a227.555556 227.555556 0 0 0-102.020741-189.62963 227.555556 227.555556 0 0 0-251.069629 0A227.555556 227.555556 0 0 0 284.444634 365.037037v75.851852h455.111111z m-113.777778-417.185185H398.222412v135.774815a303.407407 303.407407 0 0 1 227.555555 0zM436.148338 4.740741a18.962963 18.962963 0 0 1 18.962963-18.962963h113.777778a18.962963 18.962963 0 0 1 0 37.925926h-113.777778a18.962963 18.962963 0 0 1-18.962963-18.962963z"  horiz-adv-x="1024" />

    
    <glyph glyph-name="kongtiaokaifang" unicode="&#58915;" d="M729.4-7.11a25 25 0 0 0-21.65 12.47L280.16 743.43a25 25 0 0 0 43.27 25.07L751 30.42a25 25 0 0 0-21.61-37.53zM301.78-7.12a25 25 0 0 0-21.61 37.54L707.74 768.5A25 25 0 0 0 751 743.43L323.43 5.36a25 25 0 0 0-21.65-12.48zM89.1 360.19a25 25 0 0 0-0.1 50l853 3.48h0.11a25 25 0 0 0 0.1-50l-853-3.48zM394.36 558.2H224.1a25 25 0 1 0 0 50h156.37l71.12 114.21A25 25 0 0 0 494 696l-78.42-126a25 25 0 0 0-21.22-11.8zM197.36 218.43A25 25 0 0 0 175 254.54l69.44 140.1-70.77 114.44a25 25 0 1 0 42.52 26.29l78.05-126.24a25 25 0 0 0 1.14-24.25l-75.6-152.55a25 25 0 0 0-22.42-13.9zM830.55 218.43a25 25 0 0 0-22.41 13.9l-75.61 152.55a25 25 0 0 0 1.14 24.25l78 126.24a25 25 0 1 0 42.53-26.29l-70.7-114.44 69.43-140.1a25 25 0 0 0-22.38-36.11zM647.27 558.2a25 25 0 0 0-21.07 11.54l-91.66 143.47a25 25 0 1 0 42.13 26.92l84.19-131.77 134.53 1.56h0.3a25 25 0 0 0 0.28-50l-148.41-1.72zM472.83 25.67a25 25 0 0 0-21.24 11.79l-71.12 114.21H224.1a25 25 0 0 0 0 50h170.26a25 25 0 0 0 21.22-11.79l78.45-126a25 25 0 0 0-21.2-38.22zM555.58 8.2a25 25 0 0 0-21 38.46l91.62 143.47a24.9 24.9 0 0 0 21.36 11.54L796 199.95a25 25 0 0 0-0.28-50h-0.3l-134.53 1.56-84.22-131.77a25 25 0 0 0-21.09-11.54z"  horiz-adv-x="1024" />

    
    <glyph glyph-name="tubiao-" unicode="&#58921;" d="M564.965517 25.6c-206.565517 0-376.055172 169.489655-376.055172 376.055172S358.4 777.710345 564.965517 777.710345 941.02069 608.22069 941.02069 401.655172 771.531034 25.6 564.965517 25.6z m0 716.8c-187.144828 0-340.744828-153.6-340.744827-340.744828S377.82069 60.910345 564.965517 60.910345 905.710345 214.510345 905.710345 401.655172 752.110345 742.4 564.965517 742.4zM564.965517 384c-74.151724 0-135.944828 68.855172-135.944827 153.6v38.841379h271.889655v-38.841379c0-84.744828-61.793103-153.6-135.944828-153.6z m-100.634483 157.131034v-3.531034c0-65.324138 45.903448-118.289655 100.634483-118.289655s100.634483 52.965517 100.634483 118.289655v3.531034H464.331034zM700.910345 226.868966H429.02069v38.841379c0 84.744828 60.027586 153.6 135.944827 153.6s135.944828-68.855172 135.944828-153.6v-38.841379z m-236.579311 35.310344h201.268966v3.531035c0 65.324138-45.903448 118.289655-100.634483 118.289655s-100.634483-52.965517-100.634483-118.289655v-3.531035zM715.034483 544.662069H400.772414c-10.593103 0-17.655172 7.062069-17.655173 17.655172s7.062069 17.655172 17.655173 17.655173h314.262069c10.593103 0 17.655172-7.062069 17.655172-17.655173s-7.062069-17.655172-17.655172-17.655172zM715.034483 226.868966H400.772414c-10.593103 0-17.655172 7.062069-17.655173 17.655172s7.062069 17.655172 17.655173 17.655172h314.262069c10.593103 0 17.655172-7.062069 17.655172-17.655172s-7.062069-17.655172-17.655172-17.655172z"  horiz-adv-x="1129" />

    
    <glyph glyph-name="zhaopian" unicode="&#59159;" d="M1041.35700219-95.98597405999999H196.17269375A164.35503 164.35503 0 0 0 32 68.18671969000002V699.82730625A164.35503 164.35503 0 0 0 196.17269375 864h32.89064156a24.54525562 24.54525562 0 0 0 0-49.09051031h-32.89064156A115.20841594 115.20841594 0 0 1 81.09051031 699.82730625v-631.64058656a115.20841594 115.20841594 0 0 1 115.08218344-115.08218344h845.1702825a115.20841594 115.20841594 0 0 1 115.0821825 115.08218344V699.82730625A115.20841594 115.20841594 0 0 1 1041.34297625 814.90948969H568.16655688a24.54525562 24.54525562 0 1 0 0 49.09051031h473.19044531a164.35503 164.35503 0 0 0 164.17269281-164.17269375v-631.64058656a164.35503 164.35503 0 0 0-164.17269281-164.17269375zM217.96887969 159.22857750000003a24.55928156 24.55928156 0 0 0-22.8761775 33.45167625l155.23822031 399.33026531a24.54525562 24.54525562 0 0 0 43.63445156 4.20775875l185.08525032-293.56125375 153.79355718 172.86872625a24.54525562 24.54525562 0 0 0 33.84440063 2.72101688l256.47687937-208.98531657a24.54946312 24.54946312 0 1 0-31.01117718-38.06618437L753.8969975 425.36927438l-159.89480625-179.68529438a24.54525562 24.54525562 0 0 0-39.10409813 3.22594781L378.43874656 528.80999344l-137.5796625-353.92855594a24.55928156 24.55928156 0 0 0-22.89020437-15.65286zM919.75279438 495.97545469A123.97457813 123.97457813 0 1 0 1043.75542437 619.95003281a124.11483656 124.11483656 0 0 0-124.00263-123.97457812z m-1e-8 198.85864593A74.88406781 74.88406781 0 1 1 994.66491312 619.95003281a74.9682225 74.9682225 0 0 1-74.91211875 74.88406782z"  horiz-adv-x="1251" />

    
    <glyph glyph-name="chakan" unicode="&#59053;" d="M915.456 105.398857l97.865143-97.792a36.571429 36.571429 0 0 0-51.785143-51.785143l-97.792 97.865143a329.142857 329.142857 0 1 0 51.712 51.712zM36.571429 822.857143h877.714285a36.571429 36.571429 0 1 0 0-73.142857H36.571429a36.571429 36.571429 0 0 0 0 73.142857z m0-365.714286h219.428571a36.571429 36.571429 0 0 0 0-73.142857h-219.428571a36.571429 36.571429 0 0 0 0 73.142857z m0-365.714286H292.571429a36.571429 36.571429 0 1 0 0-73.142857H36.571429a36.571429 36.571429 0 1 0 0 73.142857z m621.714285-36.571428a256 256 0 1 1 0 512 256 256 0 0 1 0-512z"  horiz-adv-x="1024" />

    
    <glyph glyph-name="pinglun" unicode="&#58927;" d="M511.9 68.5L610.7 170l17.4 17.9h209v472H187.3v-472.1h208.4l17.4-17.9 98.8-101.4m0-77.9c-4.1 0-8.3 1.6-11.5 4.9L370.7 128.70000000000005H166.6c-21.2 0-38.4 17.6-38.4 39.3V679.6c0 21.7 17.2 39.3 38.4 39.3h691.2c21.2 0 38.4-17.6 38.4-39.3V168c0-21.7-17.2-39.3-38.4-39.3H653L523.3-4.5c-3.2-3.2-7.3-4.9-11.4-4.9zM334.9 463c27.2 0 49.3-22 49.3-49.2 0-27.2-22-49.2-49.3-49.2-27.2 0-49.2 22-49.2 49.2 0 27.1 22.1 49.2 49.2 49.2zM512.2 463c27.2 0 49.2-22 49.2-49.2 0-27.2-22-49.2-49.2-49.2-27.2 0-49.2 22-49.2 49.2 0 27.1 22 49.2 49.2 49.2zM689.4 463c27.2 0 49.2-22 49.2-49.2 0-27.2-22-49.2-49.2-49.2-27.2 0-49.3 22-49.3 49.2 0.1 27.1 22.1 49.2 49.3 49.2z"  horiz-adv-x="1024" />

    
    <glyph glyph-name="tubiaozhizuo-" unicode="&#58918;" d="M857 680.66h-76.7V829H243.7v-148.34H90.39v-74.16H167v-593.33c0-41 30.89-74.17 69-74.17h552c38.11 0 69 33.21 69 74.17V606.5h76.66v74.16zM397 87.33000000000004h-76.64v445H397z m153.31 0h-76.64v445h76.65z m153.31 0H627v445h76.66z m0 593.33H320.36v74.16h383.28z"  horiz-adv-x="1024" />

    
    <glyph glyph-name="baomingxinxi" unicode="&#58925;" d="M610.816 256c6.144-6.144 24.064 0 41.984 11.776 17.92 11.776 24.064 30.208 17.92 41.984h-6.144c-11.776 11.776-30.208 17.92-48.128 24.064 72.192 41.984 126.464 114.176 126.464 204.288 0 132.096-108.032 234.496-234.496 234.496-132.096 0-234.496-108.032-234.496-234.496 0-78.336 41.984-150.016 102.4-192.512-144.384-41.984-246.272-180.224-246.272-336.384v-24.064c0-11.776 17.92-17.92 35.84-11.776 17.92 0 35.84 11.776 35.84 24.064v11.776c0 156.16 126.464 276.48 276.48 276.48 48.128 6.656 96.256-5.632 132.608-29.696z m-102.4 438.784c83.968 0 156.16-72.192 156.16-156.16s-72.192-156.16-156.16-156.16-156.16 72.192-156.16 156.16 72.192 156.16 156.16 156.16zM850.944 189.952h-264.704c-24.064 0-35.84-17.92-35.84-35.84s17.92-35.84 35.84-35.84h264.704c24.064 0 35.84 17.92 35.84 35.84 0.512 17.92-17.92 35.84-35.84 35.84zM850.944 51.712h-174.08c-24.064 0-35.84-17.92-35.84-35.84 0-24.064 17.92-35.84 35.84-35.84h174.08c24.064 0 35.84 17.92 35.84 35.84 0.512 17.92-17.92 35.84-35.84 35.84zM718.848 286.208c0-24.064 17.92-35.84 35.84-35.84h96.256c24.064 0 35.84 17.92 35.84 35.84s-17.92 35.84-35.84 35.84h-96.256c-17.92 6.144-35.84-11.776-35.84-35.84z"  horiz-adv-x="1024" />

    
    <glyph glyph-name="icon-test" unicode="&#58920;" d="M900.7 463.8H548.4V786.7c0 20.2-16.5 36.7-36.7 36.7-20.2 0-36.7-16.5-36.7-36.7v-322.9H122.8c-20.2 0-36.7-16.5-36.7-36.7 0-20.2 16.5-36.7 36.7-36.7h352.3v-381.6c0-20.2 16.5-36.7 36.7-36.7 20.2 0 36.7 16.5 36.7 36.7V390.4h352.3c20.2 0 36.7 16.5 36.7 36.7-0.1 20.2-16.6 36.7-36.8 36.7z"  horiz-adv-x="1024" />

    
    <glyph glyph-name="xiala-" unicode="&#58941;" d="M837.12 561.28a47.36 47.36 0 0 1-67.2 0l-256-256-256 256a47.36 47.36 0 0 1-64 0 46.72 46.72 0 0 1 0-64l288.64-288.64A44.8 44.8 0 0 1 512 192a47.36 47.36 0 0 1 33.92 14.08l288.64 288.64a46.72 46.72 0 0 1 2.56 66.56z"  horiz-adv-x="1024" />

    
    <glyph glyph-name="baomingguanli" unicode="&#58886;" d="M295.2 276.6c-40.428 0-74.813-25.836-87.536-61.882h-67.173V338.48c0 17.07 13.87 30.941 30.942 30.941h271.16c16.973-18.977 41.693-30.941 69.191-30.941h123.768c51.241 0 92.816 41.549 92.816 92.825V555.069c0 51.272-41.575 92.821-92.816 92.821h-92.825v30.942c0 51.272-41.576 92.821-92.827 92.821h-92.815c-51.251 0-92.826-41.548-92.826-92.821v-92.827c0-51.272 41.575-92.821 92.826-92.821h61.875v-61.879H171.433c-51.241 0-92.816-41.548-92.816-92.825v-185.643h123.759v-154.705h458.219c-34.653 36.139-55.993 85.21-55.993 139.233 0 54.026 21.34 103.098 55.993 139.233H295.2z m61.884 278.469c-17.072 0-30.942 13.884-30.942 30.937v92.827c0 17.052 13.871 30.937 30.942 30.937H449.9c17.072 0 30.942-13.884 30.942-30.937v-36.623c-35.954-12.781-61.883-46.776-61.883-87.141h-61.875zM805.719 276.6c-76.894 0-139.234-62.336-139.234-139.233s62.341-139.233 139.234-139.233c76.901 0 139.233 62.336 139.233 139.233S882.62 276.6 805.719 276.6z m46.417-170.174h-15.477v-15.472c0-17.103-13.833-30.941-30.94-30.941-17.099 0-30.942 13.839-30.942 30.941v15.472h-15.466c-17.099 0-30.942 13.839-30.942 30.94 0 17.104 13.844 30.943 30.942 30.943h15.466v15.47c0 17.1 13.844 30.938 30.942 30.938 17.107 0 30.94-13.839 30.94-30.938v-15.47h15.477c17.099 0 30.933-13.839 30.933-30.943-0.001-17.101-13.835-30.94-30.933-30.94z"  horiz-adv-x="1024" />

    
    <glyph glyph-name="tongzhigonggao" unicode="&#58882;" d="M24.380952 603.428571h975.238096v-731.428571H24.380952V603.428571z m162.523429-162.523428v-68.266667h650.191238v68.266667H186.904381z m0-162.572191v-68.266666h650.191238v68.266666H186.904381z m0-162.523428v-68.266667h650.191238V115.809524H186.904381zM512 847.238095l390.095238-292.571428H121.904762l390.095238 292.571428z m-3.413333-87.868952L310.418286 603.428571h398.189714l-199.92381 155.940572zM509.318095 790.869333m-73.142857 0a73.142857 73.142857 0 1 1 146.285714 0 73.142857 73.142857 0 1 1-146.285714 0Z"  horiz-adv-x="1024" />

    
    <glyph glyph-name="zhongmingming" unicode="&#58938;" d="M128 768h768v-256H128V768z m0-320h192v-192H128V448z m0-256h192v-192H128v192z m256-128h512v-64H384v64z m194.688 172.16L786.688 448l45.312-45.248-208.064-211.84L512 121.792l66.688 114.368z"  horiz-adv-x="1024" />

    
    </font>
</defs>
</svg>
